G04 #@! TF.FileFunction,Copper,L2,Bot,Signal*
%FSLAX46Y46*%
G04 Gerber Fmt 4.6, Leading zero omitted, Abs format (unit mm)*
G04 Created by KiCad (PCBNEW (2016-04-05 BZR 6665, Git e1b308b)-product) date 04.05.2016 13:46:03*
%MOMM*%
G01*
G04 APERTURE LIST*
%ADD10C,0.100000*%
%ADD11R,2.000000X1.000000*%
%ADD12R,1.000000X2.000000*%
%ADD13R,0.400000X2.400000*%
%ADD14C,0.700000*%
%ADD15C,0.200000*%
%ADD16C,0.300000*%
G04 APERTURE END LIST*
D10*
D11*
X175500000Y-101700000D03*
X175500000Y-100300000D03*
X175500000Y-98900000D03*
X175500000Y-103100000D03*
D12*
X187500000Y-82400000D03*
X188900000Y-82400000D03*
D13*
X182350000Y-98200000D03*
X183050000Y-98200000D03*
X183750000Y-98200000D03*
X184450000Y-98200000D03*
X185150000Y-98200000D03*
X185850000Y-98200000D03*
X186550000Y-98200000D03*
X187250000Y-98200000D03*
X187950000Y-98200000D03*
X188650000Y-98200000D03*
X189350000Y-98200000D03*
X190050000Y-98200000D03*
X190750000Y-98200000D03*
X191450000Y-98200000D03*
X192150000Y-98200000D03*
X192850000Y-98200000D03*
X193550000Y-98200000D03*
X194250000Y-98200000D03*
X194950000Y-98200000D03*
X195650000Y-98200000D03*
X196350000Y-98200000D03*
X197050000Y-98200000D03*
X197750000Y-98200000D03*
X198450000Y-98200000D03*
X199150000Y-98200000D03*
X199850000Y-98200000D03*
X200550000Y-98200000D03*
X201250000Y-98200000D03*
X201950000Y-98200000D03*
X202650000Y-98200000D03*
D11*
X200700000Y-94100000D03*
X200700000Y-89916000D03*
X200700000Y-92700000D03*
X200700000Y-91300000D03*
D14*
X208525000Y-103100000D03*
X204875000Y-102625000D03*
X201475000Y-102525002D03*
X176475000Y-96200000D03*
X207650000Y-95125001D03*
X206900000Y-91799996D03*
X198050002Y-81250000D03*
X196052232Y-81996020D03*
X201200000Y-96400002D03*
X177000000Y-103200000D03*
X204900000Y-81400000D03*
X204599996Y-88900000D03*
X207850000Y-88400000D03*
X174800000Y-88000000D03*
X189500000Y-101200000D03*
X195900000Y-101600000D03*
X201700000Y-86400000D03*
X197200000Y-85900000D03*
X193200000Y-96500000D03*
X176800000Y-81400000D03*
X208200000Y-81400000D03*
X203900000Y-91100000D03*
X197000000Y-95600000D03*
X198200000Y-89900000D03*
X199400000Y-101300004D03*
X203300000Y-100300000D03*
X189900000Y-81500000D03*
X190600000Y-82600000D03*
X174750000Y-93625000D03*
X186436000Y-87630000D03*
X176950663Y-90750663D03*
X197000000Y-81250000D03*
X186500000Y-82400000D03*
X195950000Y-84750000D03*
X201200000Y-87600000D03*
X199390000Y-95224990D03*
X189738000Y-91186000D03*
X198625000Y-95900000D03*
X178562000Y-87884000D03*
X177400000Y-88900000D03*
X188722000Y-91694000D03*
X191500000Y-103199998D03*
X187900000Y-103200000D03*
X187900000Y-100000000D03*
X202400000Y-90400000D03*
X204000000Y-85200000D03*
X201700000Y-85200000D03*
X190300000Y-92100000D03*
X193900000Y-90200000D03*
X203600000Y-87700000D03*
X203200000Y-86000000D03*
X183700000Y-96000000D03*
X182800000Y-96000000D03*
X185491958Y-96473194D03*
X184700000Y-96000000D03*
X206500000Y-100700000D03*
X205500000Y-100700000D03*
X204300000Y-100699998D03*
X193130627Y-93106010D03*
X193089704Y-94005091D03*
X194108947Y-94008947D03*
X194237042Y-95847494D03*
X194928222Y-96423926D03*
X207621789Y-90981563D03*
X207621780Y-89546025D03*
X205981140Y-92084741D03*
X209429152Y-91650002D03*
X199136000Y-89916000D03*
X197200000Y-93100000D03*
X177400000Y-89800000D03*
X175400000Y-91700000D03*
X178000000Y-97100000D03*
X177200000Y-102200000D03*
X190300000Y-93100000D03*
X193900000Y-91200000D03*
X207800000Y-99000000D03*
X191950000Y-100450000D03*
X175375002Y-96125000D03*
D15*
X203300000Y-100300000D02*
X203649999Y-99950001D01*
X207650000Y-94850000D02*
X207650000Y-95125001D01*
X203900000Y-91100000D02*
X207650000Y-94850000D01*
X206550001Y-91449997D02*
X206900000Y-91799996D01*
X205994982Y-90894978D02*
X206550001Y-91449997D01*
X204599996Y-90894978D02*
X205994982Y-90894978D01*
X200600000Y-81400000D02*
X200450000Y-81250000D01*
X200450000Y-81250000D02*
X198544976Y-81250000D01*
X196402231Y-82346019D02*
X197448957Y-82346019D01*
X196052232Y-81996020D02*
X196402231Y-82346019D01*
X197448957Y-82346019D02*
X198050002Y-81744974D01*
X198050002Y-81744974D02*
X198050002Y-81250000D01*
X198544976Y-81250000D02*
X198050002Y-81250000D01*
X195702233Y-82346019D02*
X196052232Y-81996020D01*
X194900000Y-83148252D02*
X195702233Y-82346019D01*
X195600000Y-85900000D02*
X194900000Y-85200000D01*
X194900000Y-85200000D02*
X194900000Y-83148252D01*
X197200000Y-85900000D02*
X195600000Y-85900000D01*
X188650000Y-98200000D02*
X188650000Y-99750000D01*
X187250000Y-96650000D02*
X188700000Y-96650000D01*
X188700000Y-96650000D02*
X189350000Y-96650000D01*
X188650000Y-98200000D02*
X188650000Y-96700000D01*
X188650000Y-96700000D02*
X188700000Y-96650000D01*
X187250000Y-98200000D02*
X187250000Y-96650000D01*
X197200000Y-85900000D02*
X197694974Y-85900000D01*
X197694974Y-85900000D02*
X198200000Y-86405026D01*
X198200000Y-86405026D02*
X198200000Y-89405026D01*
X198200000Y-89405026D02*
X198200000Y-89900000D01*
X200600000Y-81400000D02*
X204900000Y-81400000D01*
X200600000Y-85794974D02*
X200600000Y-81400000D01*
X204900000Y-81400000D02*
X208200000Y-81400000D01*
X201700000Y-86400000D02*
X201205026Y-86400000D01*
X201205026Y-86400000D02*
X200600000Y-85794974D01*
X202300000Y-93100000D02*
X202650000Y-93450000D01*
X202650000Y-93450000D02*
X202650000Y-96650000D01*
X204599996Y-88900000D02*
X207550000Y-88900000D01*
X207550000Y-88900000D02*
X207850000Y-88600000D01*
X203900000Y-91100000D02*
X204394974Y-91100000D01*
X204599996Y-89394974D02*
X204599996Y-88900000D01*
X204394974Y-91100000D02*
X204599996Y-90894978D01*
X204599996Y-90894978D02*
X204599996Y-89394974D01*
X200700000Y-92700000D02*
X201100000Y-92300000D01*
X201100000Y-92300000D02*
X202700000Y-92300000D01*
X202700000Y-92300000D02*
X203900000Y-91100000D01*
X198200000Y-89900000D02*
X198200000Y-92000000D01*
X198200000Y-92000000D02*
X198500000Y-92300000D01*
X198500000Y-92300000D02*
X200300000Y-92300000D01*
X200300000Y-92300000D02*
X200700000Y-92700000D01*
X202600000Y-99800000D02*
X202800000Y-99800000D01*
X202800000Y-99800000D02*
X203300000Y-100300000D01*
X201950000Y-98200000D02*
X201950000Y-99600000D01*
X201950000Y-99600000D02*
X202150000Y-99800000D01*
X202600000Y-99800000D02*
X202650000Y-99750000D01*
X202150000Y-99800000D02*
X202600000Y-99800000D01*
X202650000Y-99750000D02*
X202650000Y-98200000D01*
X174800000Y-88000000D02*
X176300000Y-86500000D01*
X176300000Y-86500000D02*
X179200000Y-86500000D01*
X179200000Y-86500000D02*
X182149999Y-89449999D01*
X182350000Y-96650000D02*
X182350000Y-98200000D01*
X182149999Y-89449999D02*
X182149999Y-96449999D01*
X182149999Y-96449999D02*
X182350000Y-96650000D01*
X176800000Y-81400000D02*
X174800000Y-83400000D01*
X174800000Y-83400000D02*
X174800000Y-88000000D01*
X195500000Y-101200000D02*
X195900000Y-101600000D01*
X189350000Y-96650000D02*
X190050000Y-96650000D01*
X201200000Y-93100000D02*
X202300000Y-93100000D01*
X200700000Y-92700000D02*
X200800000Y-92700000D01*
X200800000Y-92700000D02*
X201200000Y-93100000D01*
X200300000Y-93100000D02*
X199200000Y-93100000D01*
X200700000Y-92700000D02*
X200300000Y-93100000D01*
X199500000Y-92700000D02*
X199200000Y-92700000D01*
X200700000Y-92700000D02*
X199500000Y-92700000D01*
X200700000Y-92700000D02*
X202300000Y-92700000D01*
X199399998Y-96400002D02*
X201200000Y-96400002D01*
X199150000Y-96650000D02*
X199399998Y-96400002D01*
X201700002Y-96400002D02*
X201200000Y-96400002D01*
X201950000Y-96650000D02*
X201700002Y-96400002D01*
D16*
X177000000Y-103100000D02*
X177000000Y-103200000D01*
X175500000Y-103100000D02*
X177000000Y-103100000D01*
X175500000Y-101700000D02*
X175500000Y-103100000D01*
D15*
X189350000Y-99750000D02*
X188650000Y-99750000D01*
X190050000Y-99750000D02*
X189350000Y-99750000D01*
X189350000Y-99750000D02*
X189500000Y-99900000D01*
X189500000Y-99900000D02*
X189500000Y-101200000D01*
X192850000Y-99750000D02*
X193550000Y-99750000D01*
X193550000Y-99750000D02*
X194050000Y-99750000D01*
X194050000Y-99750000D02*
X195900000Y-101600000D01*
X196350000Y-99750000D02*
X196350000Y-101150000D01*
X196350000Y-101150000D02*
X195900000Y-101600000D01*
X197050000Y-99750000D02*
X196350000Y-99750000D01*
X197750000Y-99750000D02*
X197050000Y-99750000D01*
X198450000Y-99750000D02*
X197750000Y-99750000D01*
X198450000Y-99750000D02*
X199150000Y-99750000D01*
X199150000Y-99750000D02*
X199400000Y-100000000D01*
X199400000Y-100000000D02*
X199400000Y-101300004D01*
X202650000Y-96650000D02*
X201950000Y-96650000D01*
X198450000Y-96650000D02*
X199150000Y-96650000D01*
X197750000Y-96650000D02*
X198450000Y-96650000D01*
X197050000Y-96650000D02*
X197750000Y-96650000D01*
X196350000Y-96650000D02*
X197050000Y-96650000D01*
X193550000Y-96650000D02*
X193350000Y-96650000D01*
X193350000Y-96650000D02*
X193200000Y-96500000D01*
X193200000Y-96500000D02*
X193050000Y-96650000D01*
X193050000Y-96650000D02*
X192850000Y-96650000D01*
X202650000Y-98200000D02*
X202650000Y-96650000D01*
X201950000Y-98200000D02*
X201950000Y-96650000D01*
X203050000Y-98200000D02*
X203300000Y-98200000D01*
X202650000Y-98200000D02*
X203050000Y-98200000D01*
X196350000Y-98200000D02*
X196350000Y-99750000D01*
X197050000Y-98200000D02*
X197050000Y-99750000D01*
X197750000Y-99750000D02*
X197800000Y-99800000D01*
X197750000Y-98200000D02*
X197750000Y-99750000D01*
X198450000Y-98200000D02*
X198450000Y-99750000D01*
X199150000Y-98200000D02*
X199150000Y-99750000D01*
X199150000Y-98200000D02*
X199150000Y-96650000D01*
X198450000Y-98200000D02*
X198450000Y-96650000D01*
X197750000Y-96650000D02*
X197800000Y-96600000D01*
X197750000Y-98200000D02*
X197750000Y-96650000D01*
X197050000Y-98200000D02*
X197050000Y-96650000D01*
X196350000Y-98200000D02*
X196350000Y-96650000D01*
X193550000Y-98200000D02*
X193550000Y-96650000D01*
X192850000Y-98200000D02*
X192850000Y-96650000D01*
X193550000Y-98200000D02*
X193550000Y-99750000D01*
X192850000Y-98200000D02*
X192850000Y-99750000D01*
X182350000Y-98200000D02*
X182350000Y-99750000D01*
X190050000Y-98200000D02*
X190050000Y-99750000D01*
X189350000Y-98200000D02*
X189350000Y-99750000D01*
X190050000Y-98200000D02*
X190050000Y-96650000D01*
X189350000Y-98200000D02*
X189350000Y-96650000D01*
X181950000Y-98200000D02*
X181400000Y-98200000D01*
X182350000Y-98200000D02*
X181950000Y-98200000D01*
X189300000Y-81500000D02*
X189900000Y-81500000D01*
X188900000Y-82400000D02*
X188900000Y-81900000D01*
X188900000Y-81900000D02*
X189300000Y-81500000D01*
D16*
X190949999Y-82250001D02*
X190600000Y-82600000D01*
X197000000Y-81250000D02*
X191950000Y-81250000D01*
X191950000Y-81250000D02*
X190949999Y-82250001D01*
X175500000Y-98900000D02*
X175000000Y-98900000D01*
X175000000Y-98900000D02*
X174550000Y-98450000D01*
X174550000Y-98450000D02*
X174550000Y-93825000D01*
X174550000Y-93825000D02*
X174750000Y-93625000D01*
X174750000Y-93625000D02*
X176950663Y-91424337D01*
X176950663Y-91424337D02*
X176950663Y-90750663D01*
X186500000Y-87566000D02*
X186436000Y-87630000D01*
X186500000Y-82400000D02*
X186500000Y-87566000D01*
X187500000Y-82400000D02*
X186500000Y-82400000D01*
D15*
X201200000Y-87600000D02*
X198350000Y-84750000D01*
X198350000Y-84750000D02*
X196444974Y-84750000D01*
X196444974Y-84750000D02*
X195950000Y-84750000D01*
X189388001Y-91535999D02*
X189388001Y-93376001D01*
X198348990Y-95224990D02*
X198895026Y-95224990D01*
X189388001Y-93376001D02*
X189762001Y-93750001D01*
X192493999Y-91986001D02*
X195110001Y-91986001D01*
X195110001Y-91986001D02*
X198348990Y-95224990D01*
X189762001Y-93750001D02*
X190729999Y-93750001D01*
X189738000Y-91186000D02*
X189388001Y-91535999D01*
X190729999Y-93750001D02*
X192493999Y-91986001D01*
X198895026Y-95224990D02*
X199390000Y-95224990D01*
X195006000Y-92456000D02*
X198450000Y-95900000D01*
X191008000Y-94234000D02*
X192786000Y-92456000D01*
X188722000Y-93472000D02*
X189484000Y-94234000D01*
X188722000Y-91694000D02*
X188722000Y-93472000D01*
X198450000Y-95900000D02*
X198625000Y-95900000D01*
X192786000Y-92456000D02*
X195006000Y-92456000D01*
X189484000Y-94234000D02*
X191008000Y-94234000D01*
X177400000Y-88900000D02*
X177546000Y-88900000D01*
X177546000Y-88900000D02*
X178562000Y-87884000D01*
X191499998Y-103200000D02*
X191500000Y-103199998D01*
X187900000Y-103200000D02*
X191499998Y-103200000D01*
X185850000Y-98200000D02*
X185850000Y-99600000D01*
X185850000Y-99600000D02*
X186050000Y-99800000D01*
X186050000Y-99800000D02*
X187700000Y-99800000D01*
X187700000Y-99800000D02*
X187900000Y-100000000D01*
X187900000Y-100000000D02*
X187900000Y-98250000D01*
X187900000Y-98250000D02*
X187950000Y-98200000D01*
X200700000Y-91300000D02*
X201900000Y-91300000D01*
X201900000Y-91300000D02*
X202400000Y-90800000D01*
X202400000Y-90800000D02*
X202400000Y-90400000D01*
X202400000Y-85200000D02*
X204000000Y-85200000D01*
X201700000Y-85200000D02*
X202400000Y-85200000D01*
X202400000Y-85200000D02*
X202400000Y-90400000D01*
X193900000Y-90200000D02*
X192200000Y-90200000D01*
X192200000Y-90200000D02*
X190300000Y-92100000D01*
X203200000Y-86000000D02*
X203200000Y-87300000D01*
X203200000Y-87300000D02*
X203600000Y-87700000D01*
X183750000Y-98200000D02*
X183750000Y-96050000D01*
X183750000Y-96050000D02*
X183700000Y-96000000D01*
X183050000Y-98200000D02*
X183050000Y-96250000D01*
X183050000Y-96250000D02*
X182800000Y-96000000D01*
X185150000Y-98200000D02*
X185150000Y-96815152D01*
X185150000Y-96815152D02*
X185491958Y-96473194D01*
X184450000Y-98200000D02*
X184450000Y-96250000D01*
X184450000Y-96250000D02*
X184700000Y-96000000D01*
X206500000Y-100700000D02*
X205449979Y-101750021D01*
X205449979Y-101750021D02*
X202000021Y-101750021D01*
X202000021Y-101750021D02*
X199850000Y-99600000D01*
X199850000Y-99600000D02*
X199850000Y-98200000D01*
X205500000Y-100700000D02*
X204849989Y-101350011D01*
X202300011Y-101350011D02*
X200550000Y-99600000D01*
X204849989Y-101350011D02*
X202300011Y-101350011D01*
X200550000Y-99600000D02*
X200550000Y-98200000D01*
X204049997Y-100950001D02*
X204300000Y-100699998D01*
X202600001Y-100950001D02*
X204049997Y-100950001D01*
X201250000Y-99600000D02*
X202600001Y-100950001D01*
X201250000Y-98200000D02*
X201250000Y-99600000D01*
X193055244Y-93106010D02*
X193130627Y-93106010D01*
X190750000Y-98200000D02*
X190750000Y-95411254D01*
X190750000Y-95411254D02*
X193055244Y-93106010D01*
X191450000Y-95644795D02*
X192739705Y-94355090D01*
X191450000Y-98200000D02*
X191450000Y-95644795D01*
X192739705Y-94355090D02*
X193089704Y-94005091D01*
X193758948Y-94358946D02*
X194108947Y-94008947D01*
X192150000Y-98200000D02*
X192150000Y-95967894D01*
X192150000Y-95967894D02*
X193758948Y-94358946D01*
X194250000Y-98200000D02*
X194250000Y-95860452D01*
X194250000Y-95860452D02*
X194237042Y-95847494D01*
X194950000Y-98200000D02*
X194950000Y-96445704D01*
X194950000Y-96445704D02*
X194928222Y-96423926D01*
X207621780Y-89546025D02*
X207621780Y-90981554D01*
X207621780Y-90981554D02*
X207621789Y-90981563D01*
X208379220Y-92699934D02*
X206596333Y-92699934D01*
X206596333Y-92699934D02*
X206331139Y-92434740D01*
X206331139Y-92434740D02*
X205981140Y-92084741D01*
X209429152Y-91650002D02*
X208379220Y-92699934D01*
X199136000Y-89916000D02*
X200700000Y-89916000D01*
X197200000Y-93100000D02*
X197200000Y-93300000D01*
X197200000Y-93300000D02*
X198400000Y-94500000D01*
X198400000Y-94500000D02*
X200300000Y-94500000D01*
X200300000Y-94500000D02*
X200700000Y-94100000D01*
X175400000Y-91700000D02*
X175400000Y-91000000D01*
X176600000Y-89800000D02*
X177400000Y-89800000D01*
X175400000Y-91000000D02*
X176600000Y-89800000D01*
X177550010Y-98100000D02*
X177550010Y-97549990D01*
X177550010Y-97549990D02*
X178000000Y-97100000D01*
X177550010Y-100527821D02*
X177550010Y-98100000D01*
X177200000Y-102200000D02*
X177550010Y-101849990D01*
X177550010Y-101849990D02*
X177550010Y-100527821D01*
X193900000Y-91200000D02*
X192200000Y-91200000D01*
X192200000Y-91200000D02*
X190300000Y-93100000D01*
X207799990Y-103500010D02*
X207800000Y-103500000D01*
X207800000Y-103500000D02*
X207800000Y-99000000D01*
X207174990Y-103500010D02*
X207799990Y-103500010D01*
X191950000Y-102500000D02*
X192950010Y-103500010D01*
X192950010Y-103500010D02*
X207174990Y-103500010D01*
X191950000Y-100450000D02*
X191950000Y-102500000D01*
D16*
X175725001Y-96474999D02*
X175375002Y-96125000D01*
X177000000Y-97749998D02*
X175725001Y-96474999D01*
X177000000Y-100100000D02*
X177000000Y-97749998D01*
X176800000Y-100300000D02*
X177000000Y-100100000D01*
X175500000Y-100300000D02*
X176800000Y-100300000D01*
G36*
X186863437Y-81070308D02*
X186747665Y-81147665D01*
X186670308Y-81263437D01*
X186643144Y-81400000D01*
X186643144Y-81701490D01*
X186639850Y-81700122D01*
X186361372Y-81699879D01*
X186104000Y-81806223D01*
X185906915Y-82002964D01*
X185800122Y-82260150D01*
X185799879Y-82538628D01*
X185906223Y-82796000D01*
X186000000Y-82889941D01*
X186000000Y-87076153D01*
X185842915Y-87232964D01*
X185736122Y-87490150D01*
X185735879Y-87768628D01*
X185842223Y-88026000D01*
X186038964Y-88223085D01*
X186296150Y-88329878D01*
X186574628Y-88330121D01*
X186832000Y-88223777D01*
X187029085Y-88027036D01*
X187135878Y-87769850D01*
X187136121Y-87491372D01*
X187029777Y-87234000D01*
X187000000Y-87204171D01*
X187000000Y-84888628D01*
X195249879Y-84888628D01*
X195356223Y-85146000D01*
X195552964Y-85343085D01*
X195810150Y-85449878D01*
X196088628Y-85450121D01*
X196346000Y-85343777D01*
X196490028Y-85200000D01*
X198163604Y-85200000D01*
X200500055Y-87536451D01*
X200499879Y-87738628D01*
X200606223Y-87996000D01*
X200802964Y-88193085D01*
X201060150Y-88299878D01*
X201338628Y-88300121D01*
X201596000Y-88193777D01*
X201793085Y-87997036D01*
X201899878Y-87739850D01*
X201900121Y-87461372D01*
X201793777Y-87204000D01*
X201597036Y-87006915D01*
X201339850Y-86900122D01*
X201136340Y-86899944D01*
X198668198Y-84431802D01*
X198522208Y-84334254D01*
X198350000Y-84300000D01*
X196489871Y-84300000D01*
X196347036Y-84156915D01*
X196089850Y-84050122D01*
X195811372Y-84049879D01*
X195554000Y-84156223D01*
X195356915Y-84352964D01*
X195250122Y-84610150D01*
X195249879Y-84888628D01*
X187000000Y-84888628D01*
X187000000Y-83756856D01*
X188000000Y-83756856D01*
X188136563Y-83729692D01*
X188200000Y-83687304D01*
X188263437Y-83729692D01*
X188400000Y-83756856D01*
X189400000Y-83756856D01*
X189536563Y-83729692D01*
X189652335Y-83652335D01*
X189729692Y-83536563D01*
X189756856Y-83400000D01*
X189756856Y-82198510D01*
X189760150Y-82199878D01*
X190009788Y-82200096D01*
X190006915Y-82202964D01*
X189900122Y-82460150D01*
X189899879Y-82738628D01*
X190006223Y-82996000D01*
X190202964Y-83193085D01*
X190460150Y-83299878D01*
X190738628Y-83300121D01*
X190996000Y-83193777D01*
X191193085Y-82997036D01*
X191299878Y-82739850D01*
X191299994Y-82607113D01*
X191303552Y-82603555D01*
X191303554Y-82603552D01*
X192157106Y-81750000D01*
X196510041Y-81750000D01*
X196602964Y-81843085D01*
X196860150Y-81949878D01*
X197138628Y-81950121D01*
X197396000Y-81843777D01*
X197593085Y-81647036D01*
X197699878Y-81389850D01*
X197700121Y-81111372D01*
X197674763Y-81050000D01*
X210450000Y-81050000D01*
X210450000Y-103450000D01*
X208250000Y-103450000D01*
X208250000Y-99539871D01*
X208393085Y-99397036D01*
X208499878Y-99139850D01*
X208500121Y-98861372D01*
X208393777Y-98604000D01*
X208197036Y-98406915D01*
X207939850Y-98300122D01*
X207661372Y-98299879D01*
X207404000Y-98406223D01*
X207206915Y-98602964D01*
X207100122Y-98860150D01*
X207099879Y-99138628D01*
X207206223Y-99396000D01*
X207350000Y-99540028D01*
X207350000Y-103050010D01*
X193136406Y-103050010D01*
X192400000Y-102313604D01*
X192400000Y-100989871D01*
X192543085Y-100847036D01*
X192649878Y-100589850D01*
X192650121Y-100311372D01*
X192543777Y-100054000D01*
X192347036Y-99856915D01*
X192106067Y-99756856D01*
X192350000Y-99756856D01*
X192486563Y-99729692D01*
X192500000Y-99720714D01*
X192513437Y-99729692D01*
X192650000Y-99756856D01*
X193050000Y-99756856D01*
X193186563Y-99729692D01*
X193200000Y-99720714D01*
X193213437Y-99729692D01*
X193350000Y-99756856D01*
X193750000Y-99756856D01*
X193886563Y-99729692D01*
X193900000Y-99720714D01*
X193913437Y-99729692D01*
X194050000Y-99756856D01*
X194450000Y-99756856D01*
X194586563Y-99729692D01*
X194600000Y-99720714D01*
X194613437Y-99729692D01*
X194750000Y-99756856D01*
X195150000Y-99756856D01*
X195286563Y-99729692D01*
X195300000Y-99720714D01*
X195313437Y-99729692D01*
X195450000Y-99756856D01*
X195850000Y-99756856D01*
X195986563Y-99729692D01*
X196000000Y-99720714D01*
X196013437Y-99729692D01*
X196150000Y-99756856D01*
X196550000Y-99756856D01*
X196686563Y-99729692D01*
X196700000Y-99720714D01*
X196713437Y-99729692D01*
X196850000Y-99756856D01*
X197250000Y-99756856D01*
X197386563Y-99729692D01*
X197400000Y-99720714D01*
X197413437Y-99729692D01*
X197550000Y-99756856D01*
X197950000Y-99756856D01*
X198086563Y-99729692D01*
X198100000Y-99720714D01*
X198113437Y-99729692D01*
X198250000Y-99756856D01*
X198650000Y-99756856D01*
X198786563Y-99729692D01*
X198800000Y-99720714D01*
X198813437Y-99729692D01*
X198950000Y-99756856D01*
X199350000Y-99756856D01*
X199428110Y-99741319D01*
X199434254Y-99772208D01*
X199493832Y-99861372D01*
X199531802Y-99918198D01*
X201681823Y-102068219D01*
X201827813Y-102165767D01*
X202000021Y-102200021D01*
X205449979Y-102200021D01*
X205622187Y-102165767D01*
X205768177Y-102068219D01*
X206436451Y-101399945D01*
X206638628Y-101400121D01*
X206896000Y-101293777D01*
X207093085Y-101097036D01*
X207199878Y-100839850D01*
X207200121Y-100561372D01*
X207093777Y-100304000D01*
X206897036Y-100106915D01*
X206639850Y-100000122D01*
X206361372Y-99999879D01*
X206104000Y-100106223D01*
X205999991Y-100210050D01*
X205897036Y-100106915D01*
X205639850Y-100000122D01*
X205361372Y-99999879D01*
X205104000Y-100106223D01*
X204906915Y-100302964D01*
X204900116Y-100319339D01*
X204893777Y-100303998D01*
X204697036Y-100106913D01*
X204439850Y-100000120D01*
X204161372Y-99999877D01*
X203904000Y-100106221D01*
X203706915Y-100302962D01*
X203625097Y-100500001D01*
X202786397Y-100500001D01*
X202043252Y-99756856D01*
X202150000Y-99756856D01*
X202286563Y-99729692D01*
X202300000Y-99720714D01*
X202313437Y-99729692D01*
X202450000Y-99756856D01*
X202850000Y-99756856D01*
X202986563Y-99729692D01*
X203102335Y-99652335D01*
X203179692Y-99536563D01*
X203206856Y-99400000D01*
X203206856Y-97000000D01*
X203179692Y-96863437D01*
X203102335Y-96747665D01*
X202986563Y-96670308D01*
X202850000Y-96643144D01*
X202450000Y-96643144D01*
X202313437Y-96670308D01*
X202300000Y-96679286D01*
X202286563Y-96670308D01*
X202150000Y-96643144D01*
X201750000Y-96643144D01*
X201613437Y-96670308D01*
X201600000Y-96679286D01*
X201586563Y-96670308D01*
X201450000Y-96643144D01*
X201050000Y-96643144D01*
X200913437Y-96670308D01*
X200900000Y-96679286D01*
X200886563Y-96670308D01*
X200750000Y-96643144D01*
X200350000Y-96643144D01*
X200213437Y-96670308D01*
X200200000Y-96679286D01*
X200186563Y-96670308D01*
X200050000Y-96643144D01*
X199650000Y-96643144D01*
X199513437Y-96670308D01*
X199500000Y-96679286D01*
X199486563Y-96670308D01*
X199350000Y-96643144D01*
X198950000Y-96643144D01*
X198813437Y-96670308D01*
X198800000Y-96679286D01*
X198786563Y-96670308D01*
X198650000Y-96643144D01*
X198250000Y-96643144D01*
X198113437Y-96670308D01*
X198100000Y-96679286D01*
X198086563Y-96670308D01*
X197950000Y-96643144D01*
X197550000Y-96643144D01*
X197413437Y-96670308D01*
X197400000Y-96679286D01*
X197386563Y-96670308D01*
X197250000Y-96643144D01*
X196850000Y-96643144D01*
X196713437Y-96670308D01*
X196700000Y-96679286D01*
X196686563Y-96670308D01*
X196550000Y-96643144D01*
X196150000Y-96643144D01*
X196013437Y-96670308D01*
X196000000Y-96679286D01*
X195986563Y-96670308D01*
X195850000Y-96643144D01*
X195595144Y-96643144D01*
X195628100Y-96563776D01*
X195628343Y-96285298D01*
X195521999Y-96027926D01*
X195325258Y-95830841D01*
X195068072Y-95724048D01*
X194937150Y-95723934D01*
X194937163Y-95708866D01*
X194830819Y-95451494D01*
X194634078Y-95254409D01*
X194376892Y-95147616D01*
X194098414Y-95147373D01*
X193841042Y-95253717D01*
X193643957Y-95450458D01*
X193537164Y-95707644D01*
X193536921Y-95986122D01*
X193643265Y-96243494D01*
X193800000Y-96400503D01*
X193800000Y-96653090D01*
X193750000Y-96643144D01*
X193350000Y-96643144D01*
X193213437Y-96670308D01*
X193200000Y-96679286D01*
X193186563Y-96670308D01*
X193050000Y-96643144D01*
X192650000Y-96643144D01*
X192600000Y-96653090D01*
X192600000Y-96154290D01*
X194045398Y-94708892D01*
X194247575Y-94709068D01*
X194504947Y-94602724D01*
X194702032Y-94405983D01*
X194808825Y-94148797D01*
X194809068Y-93870319D01*
X194702724Y-93612947D01*
X194505983Y-93415862D01*
X194248797Y-93309069D01*
X193970319Y-93308826D01*
X193769988Y-93391601D01*
X193830505Y-93245860D01*
X193830748Y-92967382D01*
X193805385Y-92906000D01*
X194819604Y-92906000D01*
X197924903Y-96011299D01*
X197924879Y-96038628D01*
X198031223Y-96296000D01*
X198227964Y-96493085D01*
X198485150Y-96599878D01*
X198763628Y-96600121D01*
X199021000Y-96493777D01*
X199218085Y-96297036D01*
X199324878Y-96039850D01*
X199324978Y-95924933D01*
X199528628Y-95925111D01*
X199786000Y-95818767D01*
X199983085Y-95622026D01*
X200089878Y-95364840D01*
X200090121Y-95086362D01*
X200036610Y-94956856D01*
X201700000Y-94956856D01*
X201836563Y-94929692D01*
X201952335Y-94852335D01*
X202029692Y-94736563D01*
X202056856Y-94600000D01*
X202056856Y-93600000D01*
X202029692Y-93463437D01*
X201987304Y-93400000D01*
X202029692Y-93336563D01*
X202056856Y-93200000D01*
X202056856Y-92219408D01*
X205301022Y-92219408D01*
X205404328Y-92469427D01*
X205595448Y-92660881D01*
X205845286Y-92764623D01*
X206053091Y-92764804D01*
X206292277Y-93003990D01*
X206431779Y-93097202D01*
X206596333Y-93129934D01*
X208379220Y-93129934D01*
X208543774Y-93097202D01*
X208683276Y-93003990D01*
X209357326Y-92329940D01*
X209563819Y-92330120D01*
X209813838Y-92226814D01*
X210005292Y-92035694D01*
X210109034Y-91785856D01*
X210109270Y-91515335D01*
X210005964Y-91265316D01*
X209814844Y-91073862D01*
X209565006Y-90970120D01*
X209294485Y-90969884D01*
X209044466Y-91073190D01*
X208853012Y-91264310D01*
X208749270Y-91514148D01*
X208749089Y-91721953D01*
X208201108Y-92269934D01*
X206774445Y-92269934D01*
X206661078Y-92156567D01*
X206661258Y-91950074D01*
X206557952Y-91700055D01*
X206366832Y-91508601D01*
X206116994Y-91404859D01*
X205846473Y-91404623D01*
X205596454Y-91507929D01*
X205405000Y-91699049D01*
X205301258Y-91948887D01*
X205301022Y-92219408D01*
X202056856Y-92219408D01*
X202056856Y-92200000D01*
X202029692Y-92063437D01*
X201987304Y-92000000D01*
X202029692Y-91936563D01*
X202056856Y-91800000D01*
X202056856Y-91718800D01*
X202072208Y-91715746D01*
X202218198Y-91618198D01*
X202718198Y-91118198D01*
X202739713Y-91085999D01*
X202812019Y-90977786D01*
X202993085Y-90797036D01*
X203099878Y-90539850D01*
X203100121Y-90261372D01*
X202993777Y-90004000D01*
X202850000Y-89859972D01*
X202850000Y-89680692D01*
X206941662Y-89680692D01*
X207044968Y-89930711D01*
X207191780Y-90077780D01*
X207191780Y-90449995D01*
X207045649Y-90595871D01*
X206941907Y-90845709D01*
X206941671Y-91116230D01*
X207044977Y-91366249D01*
X207236097Y-91557703D01*
X207485935Y-91661445D01*
X207756456Y-91661681D01*
X208006475Y-91558375D01*
X208197929Y-91367255D01*
X208301671Y-91117417D01*
X208301907Y-90846896D01*
X208198601Y-90596877D01*
X208051780Y-90449799D01*
X208051780Y-90077602D01*
X208197920Y-89931717D01*
X208301662Y-89681879D01*
X208301898Y-89411358D01*
X208198592Y-89161339D01*
X208007472Y-88969885D01*
X207757634Y-88866143D01*
X207487113Y-88865907D01*
X207237094Y-88969213D01*
X207045640Y-89160333D01*
X206941898Y-89410171D01*
X206941662Y-89680692D01*
X202850000Y-89680692D01*
X202850000Y-87570603D01*
X202881802Y-87618198D01*
X202900055Y-87636451D01*
X202899879Y-87838628D01*
X203006223Y-88096000D01*
X203202964Y-88293085D01*
X203460150Y-88399878D01*
X203738628Y-88400121D01*
X203996000Y-88293777D01*
X204193085Y-88097036D01*
X204299878Y-87839850D01*
X204300121Y-87561372D01*
X204193777Y-87304000D01*
X203997036Y-87106915D01*
X203739850Y-87000122D01*
X203650000Y-87000044D01*
X203650000Y-86539871D01*
X203793085Y-86397036D01*
X203899878Y-86139850D01*
X203900087Y-85899913D01*
X204138628Y-85900121D01*
X204396000Y-85793777D01*
X204593085Y-85597036D01*
X204699878Y-85339850D01*
X204700121Y-85061372D01*
X204593777Y-84804000D01*
X204397036Y-84606915D01*
X204139850Y-84500122D01*
X203861372Y-84499879D01*
X203604000Y-84606223D01*
X203459972Y-84750000D01*
X202239871Y-84750000D01*
X202097036Y-84606915D01*
X201839850Y-84500122D01*
X201561372Y-84499879D01*
X201304000Y-84606223D01*
X201106915Y-84802964D01*
X201000122Y-85060150D01*
X200999879Y-85338628D01*
X201106223Y-85596000D01*
X201302964Y-85793085D01*
X201560150Y-85899878D01*
X201838628Y-85900121D01*
X201950000Y-85854103D01*
X201950000Y-89162105D01*
X201836563Y-89086308D01*
X201700000Y-89059144D01*
X199700000Y-89059144D01*
X199563437Y-89086308D01*
X199447665Y-89163665D01*
X199382910Y-89260577D01*
X199275850Y-89216122D01*
X198997372Y-89215879D01*
X198740000Y-89322223D01*
X198542915Y-89518964D01*
X198436122Y-89776150D01*
X198435879Y-90054628D01*
X198542223Y-90312000D01*
X198738964Y-90509085D01*
X198996150Y-90615878D01*
X199274628Y-90616121D01*
X199382887Y-90571389D01*
X199407350Y-90608000D01*
X199370308Y-90663437D01*
X199343144Y-90800000D01*
X199343144Y-91800000D01*
X199370308Y-91936563D01*
X199412696Y-92000000D01*
X199370308Y-92063437D01*
X199343144Y-92200000D01*
X199343144Y-93200000D01*
X199370308Y-93336563D01*
X199412696Y-93400000D01*
X199370308Y-93463437D01*
X199343144Y-93600000D01*
X199343144Y-94050000D01*
X198586396Y-94050000D01*
X197863604Y-93327208D01*
X197899878Y-93239850D01*
X197900121Y-92961372D01*
X197793777Y-92704000D01*
X197597036Y-92506915D01*
X197339850Y-92400122D01*
X197061372Y-92399879D01*
X196804000Y-92506223D01*
X196606915Y-92702964D01*
X196564795Y-92804399D01*
X195428199Y-91667803D01*
X195353960Y-91618198D01*
X195282209Y-91570255D01*
X195110001Y-91536001D01*
X194518429Y-91536001D01*
X194599878Y-91339850D01*
X194600121Y-91061372D01*
X194493777Y-90804000D01*
X194389950Y-90699991D01*
X194493085Y-90597036D01*
X194599878Y-90339850D01*
X194600121Y-90061372D01*
X194493777Y-89804000D01*
X194297036Y-89606915D01*
X194039850Y-89500122D01*
X193761372Y-89499879D01*
X193504000Y-89606223D01*
X193359972Y-89750000D01*
X192200000Y-89750000D01*
X192027792Y-89784254D01*
X191993878Y-89806915D01*
X191881802Y-89881802D01*
X190437878Y-91325726D01*
X190438121Y-91047372D01*
X190331777Y-90790000D01*
X190135036Y-90592915D01*
X189877850Y-90486122D01*
X189599372Y-90485879D01*
X189342000Y-90592223D01*
X189144915Y-90788964D01*
X189038122Y-91046150D01*
X189038104Y-91067309D01*
X188861850Y-90994122D01*
X188583372Y-90993879D01*
X188326000Y-91100223D01*
X188128915Y-91296964D01*
X188022122Y-91554150D01*
X188021879Y-91832628D01*
X188128223Y-92090000D01*
X188272000Y-92234028D01*
X188272000Y-93472000D01*
X188306254Y-93644208D01*
X188386865Y-93764850D01*
X188403802Y-93790198D01*
X189165802Y-94552198D01*
X189311792Y-94649746D01*
X189484000Y-94684000D01*
X190840858Y-94684000D01*
X190431802Y-95093056D01*
X190334254Y-95239046D01*
X190300000Y-95411254D01*
X190300000Y-96653090D01*
X190250000Y-96643144D01*
X189850000Y-96643144D01*
X189713437Y-96670308D01*
X189700000Y-96679286D01*
X189686563Y-96670308D01*
X189550000Y-96643144D01*
X189150000Y-96643144D01*
X189013437Y-96670308D01*
X189000000Y-96679286D01*
X188986563Y-96670308D01*
X188850000Y-96643144D01*
X188450000Y-96643144D01*
X188313437Y-96670308D01*
X188300000Y-96679286D01*
X188286563Y-96670308D01*
X188150000Y-96643144D01*
X187750000Y-96643144D01*
X187613437Y-96670308D01*
X187600000Y-96679286D01*
X187586563Y-96670308D01*
X187450000Y-96643144D01*
X187050000Y-96643144D01*
X186913437Y-96670308D01*
X186900000Y-96679286D01*
X186886563Y-96670308D01*
X186750000Y-96643144D01*
X186350000Y-96643144D01*
X186213437Y-96670308D01*
X186200000Y-96679286D01*
X186186563Y-96670308D01*
X186169470Y-96666908D01*
X186191836Y-96613044D01*
X186192079Y-96334566D01*
X186085735Y-96077194D01*
X185888994Y-95880109D01*
X185631808Y-95773316D01*
X185363640Y-95773082D01*
X185293777Y-95604000D01*
X185097036Y-95406915D01*
X184839850Y-95300122D01*
X184561372Y-95299879D01*
X184304000Y-95406223D01*
X184199991Y-95510050D01*
X184097036Y-95406915D01*
X183839850Y-95300122D01*
X183561372Y-95299879D01*
X183304000Y-95406223D01*
X183250079Y-95460050D01*
X183197036Y-95406915D01*
X182939850Y-95300122D01*
X182661372Y-95299879D01*
X182404000Y-95406223D01*
X182206915Y-95602964D01*
X182100122Y-95860150D01*
X182099879Y-96138628D01*
X182206223Y-96396000D01*
X182402964Y-96593085D01*
X182523519Y-96643144D01*
X182150000Y-96643144D01*
X182013437Y-96670308D01*
X181897665Y-96747665D01*
X181820308Y-96863437D01*
X181793144Y-97000000D01*
X181793144Y-99400000D01*
X181820308Y-99536563D01*
X181897665Y-99652335D01*
X182013437Y-99729692D01*
X182150000Y-99756856D01*
X182550000Y-99756856D01*
X182686563Y-99729692D01*
X182700000Y-99720714D01*
X182713437Y-99729692D01*
X182850000Y-99756856D01*
X183250000Y-99756856D01*
X183386563Y-99729692D01*
X183400000Y-99720714D01*
X183413437Y-99729692D01*
X183550000Y-99756856D01*
X183950000Y-99756856D01*
X184086563Y-99729692D01*
X184100000Y-99720714D01*
X184113437Y-99729692D01*
X184250000Y-99756856D01*
X184650000Y-99756856D01*
X184786563Y-99729692D01*
X184800000Y-99720714D01*
X184813437Y-99729692D01*
X184950000Y-99756856D01*
X185350000Y-99756856D01*
X185428110Y-99741319D01*
X185434254Y-99772208D01*
X185493832Y-99861372D01*
X185531802Y-99918198D01*
X185731802Y-100118198D01*
X185877792Y-100215746D01*
X186050000Y-100250000D01*
X187245897Y-100250000D01*
X187306223Y-100396000D01*
X187502964Y-100593085D01*
X187760150Y-100699878D01*
X188038628Y-100700121D01*
X188296000Y-100593777D01*
X188493085Y-100397036D01*
X188599878Y-100139850D01*
X188600121Y-99861372D01*
X188556936Y-99756856D01*
X188850000Y-99756856D01*
X188986563Y-99729692D01*
X189000000Y-99720714D01*
X189013437Y-99729692D01*
X189150000Y-99756856D01*
X189550000Y-99756856D01*
X189686563Y-99729692D01*
X189700000Y-99720714D01*
X189713437Y-99729692D01*
X189850000Y-99756856D01*
X190250000Y-99756856D01*
X190386563Y-99729692D01*
X190400000Y-99720714D01*
X190413437Y-99729692D01*
X190550000Y-99756856D01*
X190950000Y-99756856D01*
X191086563Y-99729692D01*
X191100000Y-99720714D01*
X191113437Y-99729692D01*
X191250000Y-99756856D01*
X191650000Y-99756856D01*
X191786563Y-99729692D01*
X191800000Y-99720714D01*
X191813437Y-99729692D01*
X191915380Y-99749970D01*
X191811372Y-99749879D01*
X191554000Y-99856223D01*
X191356915Y-100052964D01*
X191250122Y-100310150D01*
X191249879Y-100588628D01*
X191356223Y-100846000D01*
X191500000Y-100990028D01*
X191500000Y-102499998D01*
X191361372Y-102499877D01*
X191104000Y-102606221D01*
X190959970Y-102750000D01*
X188439871Y-102750000D01*
X188297036Y-102606915D01*
X188039850Y-102500122D01*
X187761372Y-102499879D01*
X187504000Y-102606223D01*
X187306915Y-102802964D01*
X187200122Y-103060150D01*
X187199879Y-103338628D01*
X187245897Y-103450000D01*
X176856856Y-103450000D01*
X176856856Y-102815463D01*
X177060150Y-102899878D01*
X177338628Y-102900121D01*
X177596000Y-102793777D01*
X177793085Y-102597036D01*
X177899878Y-102339850D01*
X177900069Y-102120504D01*
X177924291Y-102084254D01*
X177965756Y-102022198D01*
X178000010Y-101849990D01*
X178000010Y-97800000D01*
X178138628Y-97800121D01*
X178396000Y-97693777D01*
X178593085Y-97497036D01*
X178699878Y-97239850D01*
X178700121Y-96961372D01*
X178593777Y-96704000D01*
X178397036Y-96506915D01*
X178139850Y-96400122D01*
X177861372Y-96399879D01*
X177604000Y-96506223D01*
X177406915Y-96702964D01*
X177300122Y-96960150D01*
X177299944Y-97163660D01*
X177231812Y-97231792D01*
X177214624Y-97257516D01*
X176078556Y-96121448D01*
X176078554Y-96121445D01*
X176075008Y-96117899D01*
X176075123Y-95986372D01*
X175968779Y-95729000D01*
X175772038Y-95531915D01*
X175514852Y-95425122D01*
X175236374Y-95424879D01*
X175050000Y-95501887D01*
X175050000Y-94258443D01*
X175146000Y-94218777D01*
X175343085Y-94022036D01*
X175449878Y-93764850D01*
X175449994Y-93632112D01*
X177304216Y-91777891D01*
X177412603Y-91615679D01*
X177424135Y-91557703D01*
X177450663Y-91424337D01*
X177450663Y-91240622D01*
X177543748Y-91147699D01*
X177650541Y-90890513D01*
X177650784Y-90612035D01*
X177594930Y-90476858D01*
X177796000Y-90393777D01*
X177993085Y-90197036D01*
X178099878Y-89939850D01*
X178100121Y-89661372D01*
X177993777Y-89404000D01*
X177939950Y-89350079D01*
X177993085Y-89297036D01*
X178099878Y-89039850D01*
X178099928Y-88982468D01*
X178498451Y-88583945D01*
X178700628Y-88584121D01*
X178958000Y-88477777D01*
X179155085Y-88281036D01*
X179261878Y-88023850D01*
X179262121Y-87745372D01*
X179155777Y-87488000D01*
X178959036Y-87290915D01*
X178701850Y-87184122D01*
X178423372Y-87183879D01*
X178166000Y-87290223D01*
X177968915Y-87486964D01*
X177862122Y-87744150D01*
X177861944Y-87947660D01*
X177589052Y-88220552D01*
X177539850Y-88200122D01*
X177261372Y-88199879D01*
X177004000Y-88306223D01*
X176806915Y-88502964D01*
X176700122Y-88760150D01*
X176699879Y-89038628D01*
X176806223Y-89296000D01*
X176860050Y-89349921D01*
X176859972Y-89350000D01*
X176600000Y-89350000D01*
X176427792Y-89384254D01*
X176281802Y-89481802D01*
X175081802Y-90681802D01*
X174984254Y-90827792D01*
X174950000Y-91000000D01*
X174950000Y-91160129D01*
X174806915Y-91302964D01*
X174700122Y-91560150D01*
X174699879Y-91838628D01*
X174806223Y-92096000D01*
X175002964Y-92293085D01*
X175260150Y-92399878D01*
X175268009Y-92399885D01*
X174742900Y-92924994D01*
X174611372Y-92924879D01*
X174550000Y-92950237D01*
X174550000Y-81050000D01*
X186965532Y-81050000D01*
X186863437Y-81070308D01*
X186863437Y-81070308D01*
G37*
X186863437Y-81070308D02*
X186747665Y-81147665D01*
X186670308Y-81263437D01*
X186643144Y-81400000D01*
X186643144Y-81701490D01*
X186639850Y-81700122D01*
X186361372Y-81699879D01*
X186104000Y-81806223D01*
X185906915Y-82002964D01*
X185800122Y-82260150D01*
X185799879Y-82538628D01*
X185906223Y-82796000D01*
X186000000Y-82889941D01*
X186000000Y-87076153D01*
X185842915Y-87232964D01*
X185736122Y-87490150D01*
X185735879Y-87768628D01*
X185842223Y-88026000D01*
X186038964Y-88223085D01*
X186296150Y-88329878D01*
X186574628Y-88330121D01*
X186832000Y-88223777D01*
X187029085Y-88027036D01*
X187135878Y-87769850D01*
X187136121Y-87491372D01*
X187029777Y-87234000D01*
X187000000Y-87204171D01*
X187000000Y-84888628D01*
X195249879Y-84888628D01*
X195356223Y-85146000D01*
X195552964Y-85343085D01*
X195810150Y-85449878D01*
X196088628Y-85450121D01*
X196346000Y-85343777D01*
X196490028Y-85200000D01*
X198163604Y-85200000D01*
X200500055Y-87536451D01*
X200499879Y-87738628D01*
X200606223Y-87996000D01*
X200802964Y-88193085D01*
X201060150Y-88299878D01*
X201338628Y-88300121D01*
X201596000Y-88193777D01*
X201793085Y-87997036D01*
X201899878Y-87739850D01*
X201900121Y-87461372D01*
X201793777Y-87204000D01*
X201597036Y-87006915D01*
X201339850Y-86900122D01*
X201136340Y-86899944D01*
X198668198Y-84431802D01*
X198522208Y-84334254D01*
X198350000Y-84300000D01*
X196489871Y-84300000D01*
X196347036Y-84156915D01*
X196089850Y-84050122D01*
X195811372Y-84049879D01*
X195554000Y-84156223D01*
X195356915Y-84352964D01*
X195250122Y-84610150D01*
X195249879Y-84888628D01*
X187000000Y-84888628D01*
X187000000Y-83756856D01*
X188000000Y-83756856D01*
X188136563Y-83729692D01*
X188200000Y-83687304D01*
X188263437Y-83729692D01*
X188400000Y-83756856D01*
X189400000Y-83756856D01*
X189536563Y-83729692D01*
X189652335Y-83652335D01*
X189729692Y-83536563D01*
X189756856Y-83400000D01*
X189756856Y-82198510D01*
X189760150Y-82199878D01*
X190009788Y-82200096D01*
X190006915Y-82202964D01*
X189900122Y-82460150D01*
X189899879Y-82738628D01*
X190006223Y-82996000D01*
X190202964Y-83193085D01*
X190460150Y-83299878D01*
X190738628Y-83300121D01*
X190996000Y-83193777D01*
X191193085Y-82997036D01*
X191299878Y-82739850D01*
X191299994Y-82607113D01*
X191303552Y-82603555D01*
X191303554Y-82603552D01*
X192157106Y-81750000D01*
X196510041Y-81750000D01*
X196602964Y-81843085D01*
X196860150Y-81949878D01*
X197138628Y-81950121D01*
X197396000Y-81843777D01*
X197593085Y-81647036D01*
X197699878Y-81389850D01*
X197700121Y-81111372D01*
X197674763Y-81050000D01*
X210450000Y-81050000D01*
X210450000Y-103450000D01*
X208250000Y-103450000D01*
X208250000Y-99539871D01*
X208393085Y-99397036D01*
X208499878Y-99139850D01*
X208500121Y-98861372D01*
X208393777Y-98604000D01*
X208197036Y-98406915D01*
X207939850Y-98300122D01*
X207661372Y-98299879D01*
X207404000Y-98406223D01*
X207206915Y-98602964D01*
X207100122Y-98860150D01*
X207099879Y-99138628D01*
X207206223Y-99396000D01*
X207350000Y-99540028D01*
X207350000Y-103050010D01*
X193136406Y-103050010D01*
X192400000Y-102313604D01*
X192400000Y-100989871D01*
X192543085Y-100847036D01*
X192649878Y-100589850D01*
X192650121Y-100311372D01*
X192543777Y-100054000D01*
X192347036Y-99856915D01*
X192106067Y-99756856D01*
X192350000Y-99756856D01*
X192486563Y-99729692D01*
X192500000Y-99720714D01*
X192513437Y-99729692D01*
X192650000Y-99756856D01*
X193050000Y-99756856D01*
X193186563Y-99729692D01*
X193200000Y-99720714D01*
X193213437Y-99729692D01*
X193350000Y-99756856D01*
X193750000Y-99756856D01*
X193886563Y-99729692D01*
X193900000Y-99720714D01*
X193913437Y-99729692D01*
X194050000Y-99756856D01*
X194450000Y-99756856D01*
X194586563Y-99729692D01*
X194600000Y-99720714D01*
X194613437Y-99729692D01*
X194750000Y-99756856D01*
X195150000Y-99756856D01*
X195286563Y-99729692D01*
X195300000Y-99720714D01*
X195313437Y-99729692D01*
X195450000Y-99756856D01*
X195850000Y-99756856D01*
X195986563Y-99729692D01*
X196000000Y-99720714D01*
X196013437Y-99729692D01*
X196150000Y-99756856D01*
X196550000Y-99756856D01*
X196686563Y-99729692D01*
X196700000Y-99720714D01*
X196713437Y-99729692D01*
X196850000Y-99756856D01*
X197250000Y-99756856D01*
X197386563Y-99729692D01*
X197400000Y-99720714D01*
X197413437Y-99729692D01*
X197550000Y-99756856D01*
X197950000Y-99756856D01*
X198086563Y-99729692D01*
X198100000Y-99720714D01*
X198113437Y-99729692D01*
X198250000Y-99756856D01*
X198650000Y-99756856D01*
X198786563Y-99729692D01*
X198800000Y-99720714D01*
X198813437Y-99729692D01*
X198950000Y-99756856D01*
X199350000Y-99756856D01*
X199428110Y-99741319D01*
X199434254Y-99772208D01*
X199493832Y-99861372D01*
X199531802Y-99918198D01*
X201681823Y-102068219D01*
X201827813Y-102165767D01*
X202000021Y-102200021D01*
X205449979Y-102200021D01*
X205622187Y-102165767D01*
X205768177Y-102068219D01*
X206436451Y-101399945D01*
X206638628Y-101400121D01*
X206896000Y-101293777D01*
X207093085Y-101097036D01*
X207199878Y-100839850D01*
X207200121Y-100561372D01*
X207093777Y-100304000D01*
X206897036Y-100106915D01*
X206639850Y-100000122D01*
X206361372Y-99999879D01*
X206104000Y-100106223D01*
X205999991Y-100210050D01*
X205897036Y-100106915D01*
X205639850Y-100000122D01*
X205361372Y-99999879D01*
X205104000Y-100106223D01*
X204906915Y-100302964D01*
X204900116Y-100319339D01*
X204893777Y-100303998D01*
X204697036Y-100106913D01*
X204439850Y-100000120D01*
X204161372Y-99999877D01*
X203904000Y-100106221D01*
X203706915Y-100302962D01*
X203625097Y-100500001D01*
X202786397Y-100500001D01*
X202043252Y-99756856D01*
X202150000Y-99756856D01*
X202286563Y-99729692D01*
X202300000Y-99720714D01*
X202313437Y-99729692D01*
X202450000Y-99756856D01*
X202850000Y-99756856D01*
X202986563Y-99729692D01*
X203102335Y-99652335D01*
X203179692Y-99536563D01*
X203206856Y-99400000D01*
X203206856Y-97000000D01*
X203179692Y-96863437D01*
X203102335Y-96747665D01*
X202986563Y-96670308D01*
X202850000Y-96643144D01*
X202450000Y-96643144D01*
X202313437Y-96670308D01*
X202300000Y-96679286D01*
X202286563Y-96670308D01*
X202150000Y-96643144D01*
X201750000Y-96643144D01*
X201613437Y-96670308D01*
X201600000Y-96679286D01*
X201586563Y-96670308D01*
X201450000Y-96643144D01*
X201050000Y-96643144D01*
X200913437Y-96670308D01*
X200900000Y-96679286D01*
X200886563Y-96670308D01*
X200750000Y-96643144D01*
X200350000Y-96643144D01*
X200213437Y-96670308D01*
X200200000Y-96679286D01*
X200186563Y-96670308D01*
X200050000Y-96643144D01*
X199650000Y-96643144D01*
X199513437Y-96670308D01*
X199500000Y-96679286D01*
X199486563Y-96670308D01*
X199350000Y-96643144D01*
X198950000Y-96643144D01*
X198813437Y-96670308D01*
X198800000Y-96679286D01*
X198786563Y-96670308D01*
X198650000Y-96643144D01*
X198250000Y-96643144D01*
X198113437Y-96670308D01*
X198100000Y-96679286D01*
X198086563Y-96670308D01*
X197950000Y-96643144D01*
X197550000Y-96643144D01*
X197413437Y-96670308D01*
X197400000Y-96679286D01*
X197386563Y-96670308D01*
X197250000Y-96643144D01*
X196850000Y-96643144D01*
X196713437Y-96670308D01*
X196700000Y-96679286D01*
X196686563Y-96670308D01*
X196550000Y-96643144D01*
X196150000Y-96643144D01*
X196013437Y-96670308D01*
X196000000Y-96679286D01*
X195986563Y-96670308D01*
X195850000Y-96643144D01*
X195595144Y-96643144D01*
X195628100Y-96563776D01*
X195628343Y-96285298D01*
X195521999Y-96027926D01*
X195325258Y-95830841D01*
X195068072Y-95724048D01*
X194937150Y-95723934D01*
X194937163Y-95708866D01*
X194830819Y-95451494D01*
X194634078Y-95254409D01*
X194376892Y-95147616D01*
X194098414Y-95147373D01*
X193841042Y-95253717D01*
X193643957Y-95450458D01*
X193537164Y-95707644D01*
X193536921Y-95986122D01*
X193643265Y-96243494D01*
X193800000Y-96400503D01*
X193800000Y-96653090D01*
X193750000Y-96643144D01*
X193350000Y-96643144D01*
X193213437Y-96670308D01*
X193200000Y-96679286D01*
X193186563Y-96670308D01*
X193050000Y-96643144D01*
X192650000Y-96643144D01*
X192600000Y-96653090D01*
X192600000Y-96154290D01*
X194045398Y-94708892D01*
X194247575Y-94709068D01*
X194504947Y-94602724D01*
X194702032Y-94405983D01*
X194808825Y-94148797D01*
X194809068Y-93870319D01*
X194702724Y-93612947D01*
X194505983Y-93415862D01*
X194248797Y-93309069D01*
X193970319Y-93308826D01*
X193769988Y-93391601D01*
X193830505Y-93245860D01*
X193830748Y-92967382D01*
X193805385Y-92906000D01*
X194819604Y-92906000D01*
X197924903Y-96011299D01*
X197924879Y-96038628D01*
X198031223Y-96296000D01*
X198227964Y-96493085D01*
X198485150Y-96599878D01*
X198763628Y-96600121D01*
X199021000Y-96493777D01*
X199218085Y-96297036D01*
X199324878Y-96039850D01*
X199324978Y-95924933D01*
X199528628Y-95925111D01*
X199786000Y-95818767D01*
X199983085Y-95622026D01*
X200089878Y-95364840D01*
X200090121Y-95086362D01*
X200036610Y-94956856D01*
X201700000Y-94956856D01*
X201836563Y-94929692D01*
X201952335Y-94852335D01*
X202029692Y-94736563D01*
X202056856Y-94600000D01*
X202056856Y-93600000D01*
X202029692Y-93463437D01*
X201987304Y-93400000D01*
X202029692Y-93336563D01*
X202056856Y-93200000D01*
X202056856Y-92219408D01*
X205301022Y-92219408D01*
X205404328Y-92469427D01*
X205595448Y-92660881D01*
X205845286Y-92764623D01*
X206053091Y-92764804D01*
X206292277Y-93003990D01*
X206431779Y-93097202D01*
X206596333Y-93129934D01*
X208379220Y-93129934D01*
X208543774Y-93097202D01*
X208683276Y-93003990D01*
X209357326Y-92329940D01*
X209563819Y-92330120D01*
X209813838Y-92226814D01*
X210005292Y-92035694D01*
X210109034Y-91785856D01*
X210109270Y-91515335D01*
X210005964Y-91265316D01*
X209814844Y-91073862D01*
X209565006Y-90970120D01*
X209294485Y-90969884D01*
X209044466Y-91073190D01*
X208853012Y-91264310D01*
X208749270Y-91514148D01*
X208749089Y-91721953D01*
X208201108Y-92269934D01*
X206774445Y-92269934D01*
X206661078Y-92156567D01*
X206661258Y-91950074D01*
X206557952Y-91700055D01*
X206366832Y-91508601D01*
X206116994Y-91404859D01*
X205846473Y-91404623D01*
X205596454Y-91507929D01*
X205405000Y-91699049D01*
X205301258Y-91948887D01*
X205301022Y-92219408D01*
X202056856Y-92219408D01*
X202056856Y-92200000D01*
X202029692Y-92063437D01*
X201987304Y-92000000D01*
X202029692Y-91936563D01*
X202056856Y-91800000D01*
X202056856Y-91718800D01*
X202072208Y-91715746D01*
X202218198Y-91618198D01*
X202718198Y-91118198D01*
X202739713Y-91085999D01*
X202812019Y-90977786D01*
X202993085Y-90797036D01*
X203099878Y-90539850D01*
X203100121Y-90261372D01*
X202993777Y-90004000D01*
X202850000Y-89859972D01*
X202850000Y-89680692D01*
X206941662Y-89680692D01*
X207044968Y-89930711D01*
X207191780Y-90077780D01*
X207191780Y-90449995D01*
X207045649Y-90595871D01*
X206941907Y-90845709D01*
X206941671Y-91116230D01*
X207044977Y-91366249D01*
X207236097Y-91557703D01*
X207485935Y-91661445D01*
X207756456Y-91661681D01*
X208006475Y-91558375D01*
X208197929Y-91367255D01*
X208301671Y-91117417D01*
X208301907Y-90846896D01*
X208198601Y-90596877D01*
X208051780Y-90449799D01*
X208051780Y-90077602D01*
X208197920Y-89931717D01*
X208301662Y-89681879D01*
X208301898Y-89411358D01*
X208198592Y-89161339D01*
X208007472Y-88969885D01*
X207757634Y-88866143D01*
X207487113Y-88865907D01*
X207237094Y-88969213D01*
X207045640Y-89160333D01*
X206941898Y-89410171D01*
X206941662Y-89680692D01*
X202850000Y-89680692D01*
X202850000Y-87570603D01*
X202881802Y-87618198D01*
X202900055Y-87636451D01*
X202899879Y-87838628D01*
X203006223Y-88096000D01*
X203202964Y-88293085D01*
X203460150Y-88399878D01*
X203738628Y-88400121D01*
X203996000Y-88293777D01*
X204193085Y-88097036D01*
X204299878Y-87839850D01*
X204300121Y-87561372D01*
X204193777Y-87304000D01*
X203997036Y-87106915D01*
X203739850Y-87000122D01*
X203650000Y-87000044D01*
X203650000Y-86539871D01*
X203793085Y-86397036D01*
X203899878Y-86139850D01*
X203900087Y-85899913D01*
X204138628Y-85900121D01*
X204396000Y-85793777D01*
X204593085Y-85597036D01*
X204699878Y-85339850D01*
X204700121Y-85061372D01*
X204593777Y-84804000D01*
X204397036Y-84606915D01*
X204139850Y-84500122D01*
X203861372Y-84499879D01*
X203604000Y-84606223D01*
X203459972Y-84750000D01*
X202239871Y-84750000D01*
X202097036Y-84606915D01*
X201839850Y-84500122D01*
X201561372Y-84499879D01*
X201304000Y-84606223D01*
X201106915Y-84802964D01*
X201000122Y-85060150D01*
X200999879Y-85338628D01*
X201106223Y-85596000D01*
X201302964Y-85793085D01*
X201560150Y-85899878D01*
X201838628Y-85900121D01*
X201950000Y-85854103D01*
X201950000Y-89162105D01*
X201836563Y-89086308D01*
X201700000Y-89059144D01*
X199700000Y-89059144D01*
X199563437Y-89086308D01*
X199447665Y-89163665D01*
X199382910Y-89260577D01*
X199275850Y-89216122D01*
X198997372Y-89215879D01*
X198740000Y-89322223D01*
X198542915Y-89518964D01*
X198436122Y-89776150D01*
X198435879Y-90054628D01*
X198542223Y-90312000D01*
X198738964Y-90509085D01*
X198996150Y-90615878D01*
X199274628Y-90616121D01*
X199382887Y-90571389D01*
X199407350Y-90608000D01*
X199370308Y-90663437D01*
X199343144Y-90800000D01*
X199343144Y-91800000D01*
X199370308Y-91936563D01*
X199412696Y-92000000D01*
X199370308Y-92063437D01*
X199343144Y-92200000D01*
X199343144Y-93200000D01*
X199370308Y-93336563D01*
X199412696Y-93400000D01*
X199370308Y-93463437D01*
X199343144Y-93600000D01*
X199343144Y-94050000D01*
X198586396Y-94050000D01*
X197863604Y-93327208D01*
X197899878Y-93239850D01*
X197900121Y-92961372D01*
X197793777Y-92704000D01*
X197597036Y-92506915D01*
X197339850Y-92400122D01*
X197061372Y-92399879D01*
X196804000Y-92506223D01*
X196606915Y-92702964D01*
X196564795Y-92804399D01*
X195428199Y-91667803D01*
X195353960Y-91618198D01*
X195282209Y-91570255D01*
X195110001Y-91536001D01*
X194518429Y-91536001D01*
X194599878Y-91339850D01*
X194600121Y-91061372D01*
X194493777Y-90804000D01*
X194389950Y-90699991D01*
X194493085Y-90597036D01*
X194599878Y-90339850D01*
X194600121Y-90061372D01*
X194493777Y-89804000D01*
X194297036Y-89606915D01*
X194039850Y-89500122D01*
X193761372Y-89499879D01*
X193504000Y-89606223D01*
X193359972Y-89750000D01*
X192200000Y-89750000D01*
X192027792Y-89784254D01*
X191993878Y-89806915D01*
X191881802Y-89881802D01*
X190437878Y-91325726D01*
X190438121Y-91047372D01*
X190331777Y-90790000D01*
X190135036Y-90592915D01*
X189877850Y-90486122D01*
X189599372Y-90485879D01*
X189342000Y-90592223D01*
X189144915Y-90788964D01*
X189038122Y-91046150D01*
X189038104Y-91067309D01*
X188861850Y-90994122D01*
X188583372Y-90993879D01*
X188326000Y-91100223D01*
X188128915Y-91296964D01*
X188022122Y-91554150D01*
X188021879Y-91832628D01*
X188128223Y-92090000D01*
X188272000Y-92234028D01*
X188272000Y-93472000D01*
X188306254Y-93644208D01*
X188386865Y-93764850D01*
X188403802Y-93790198D01*
X189165802Y-94552198D01*
X189311792Y-94649746D01*
X189484000Y-94684000D01*
X190840858Y-94684000D01*
X190431802Y-95093056D01*
X190334254Y-95239046D01*
X190300000Y-95411254D01*
X190300000Y-96653090D01*
X190250000Y-96643144D01*
X189850000Y-96643144D01*
X189713437Y-96670308D01*
X189700000Y-96679286D01*
X189686563Y-96670308D01*
X189550000Y-96643144D01*
X189150000Y-96643144D01*
X189013437Y-96670308D01*
X189000000Y-96679286D01*
X188986563Y-96670308D01*
X188850000Y-96643144D01*
X188450000Y-96643144D01*
X188313437Y-96670308D01*
X188300000Y-96679286D01*
X188286563Y-96670308D01*
X188150000Y-96643144D01*
X187750000Y-96643144D01*
X187613437Y-96670308D01*
X187600000Y-96679286D01*
X187586563Y-96670308D01*
X187450000Y-96643144D01*
X187050000Y-96643144D01*
X186913437Y-96670308D01*
X186900000Y-96679286D01*
X186886563Y-96670308D01*
X186750000Y-96643144D01*
X186350000Y-96643144D01*
X186213437Y-96670308D01*
X186200000Y-96679286D01*
X186186563Y-96670308D01*
X186169470Y-96666908D01*
X186191836Y-96613044D01*
X186192079Y-96334566D01*
X186085735Y-96077194D01*
X185888994Y-95880109D01*
X185631808Y-95773316D01*
X185363640Y-95773082D01*
X185293777Y-95604000D01*
X185097036Y-95406915D01*
X184839850Y-95300122D01*
X184561372Y-95299879D01*
X184304000Y-95406223D01*
X184199991Y-95510050D01*
X184097036Y-95406915D01*
X183839850Y-95300122D01*
X183561372Y-95299879D01*
X183304000Y-95406223D01*
X183250079Y-95460050D01*
X183197036Y-95406915D01*
X182939850Y-95300122D01*
X182661372Y-95299879D01*
X182404000Y-95406223D01*
X182206915Y-95602964D01*
X182100122Y-95860150D01*
X182099879Y-96138628D01*
X182206223Y-96396000D01*
X182402964Y-96593085D01*
X182523519Y-96643144D01*
X182150000Y-96643144D01*
X182013437Y-96670308D01*
X181897665Y-96747665D01*
X181820308Y-96863437D01*
X181793144Y-97000000D01*
X181793144Y-99400000D01*
X181820308Y-99536563D01*
X181897665Y-99652335D01*
X182013437Y-99729692D01*
X182150000Y-99756856D01*
X182550000Y-99756856D01*
X182686563Y-99729692D01*
X182700000Y-99720714D01*
X182713437Y-99729692D01*
X182850000Y-99756856D01*
X183250000Y-99756856D01*
X183386563Y-99729692D01*
X183400000Y-99720714D01*
X183413437Y-99729692D01*
X183550000Y-99756856D01*
X183950000Y-99756856D01*
X184086563Y-99729692D01*
X184100000Y-99720714D01*
X184113437Y-99729692D01*
X184250000Y-99756856D01*
X184650000Y-99756856D01*
X184786563Y-99729692D01*
X184800000Y-99720714D01*
X184813437Y-99729692D01*
X184950000Y-99756856D01*
X185350000Y-99756856D01*
X185428110Y-99741319D01*
X185434254Y-99772208D01*
X185493832Y-99861372D01*
X185531802Y-99918198D01*
X185731802Y-100118198D01*
X185877792Y-100215746D01*
X186050000Y-100250000D01*
X187245897Y-100250000D01*
X187306223Y-100396000D01*
X187502964Y-100593085D01*
X187760150Y-100699878D01*
X188038628Y-100700121D01*
X188296000Y-100593777D01*
X188493085Y-100397036D01*
X188599878Y-100139850D01*
X188600121Y-99861372D01*
X188556936Y-99756856D01*
X188850000Y-99756856D01*
X188986563Y-99729692D01*
X189000000Y-99720714D01*
X189013437Y-99729692D01*
X189150000Y-99756856D01*
X189550000Y-99756856D01*
X189686563Y-99729692D01*
X189700000Y-99720714D01*
X189713437Y-99729692D01*
X189850000Y-99756856D01*
X190250000Y-99756856D01*
X190386563Y-99729692D01*
X190400000Y-99720714D01*
X190413437Y-99729692D01*
X190550000Y-99756856D01*
X190950000Y-99756856D01*
X191086563Y-99729692D01*
X191100000Y-99720714D01*
X191113437Y-99729692D01*
X191250000Y-99756856D01*
X191650000Y-99756856D01*
X191786563Y-99729692D01*
X191800000Y-99720714D01*
X191813437Y-99729692D01*
X191915380Y-99749970D01*
X191811372Y-99749879D01*
X191554000Y-99856223D01*
X191356915Y-100052964D01*
X191250122Y-100310150D01*
X191249879Y-100588628D01*
X191356223Y-100846000D01*
X191500000Y-100990028D01*
X191500000Y-102499998D01*
X191361372Y-102499877D01*
X191104000Y-102606221D01*
X190959970Y-102750000D01*
X188439871Y-102750000D01*
X188297036Y-102606915D01*
X188039850Y-102500122D01*
X187761372Y-102499879D01*
X187504000Y-102606223D01*
X187306915Y-102802964D01*
X187200122Y-103060150D01*
X187199879Y-103338628D01*
X187245897Y-103450000D01*
X176856856Y-103450000D01*
X176856856Y-102815463D01*
X177060150Y-102899878D01*
X177338628Y-102900121D01*
X177596000Y-102793777D01*
X177793085Y-102597036D01*
X177899878Y-102339850D01*
X177900069Y-102120504D01*
X177924291Y-102084254D01*
X177965756Y-102022198D01*
X178000010Y-101849990D01*
X178000010Y-97800000D01*
X178138628Y-97800121D01*
X178396000Y-97693777D01*
X178593085Y-97497036D01*
X178699878Y-97239850D01*
X178700121Y-96961372D01*
X178593777Y-96704000D01*
X178397036Y-96506915D01*
X178139850Y-96400122D01*
X177861372Y-96399879D01*
X177604000Y-96506223D01*
X177406915Y-96702964D01*
X177300122Y-96960150D01*
X177299944Y-97163660D01*
X177231812Y-97231792D01*
X177214624Y-97257516D01*
X176078556Y-96121448D01*
X176078554Y-96121445D01*
X176075008Y-96117899D01*
X176075123Y-95986372D01*
X175968779Y-95729000D01*
X175772038Y-95531915D01*
X175514852Y-95425122D01*
X175236374Y-95424879D01*
X175050000Y-95501887D01*
X175050000Y-94258443D01*
X175146000Y-94218777D01*
X175343085Y-94022036D01*
X175449878Y-93764850D01*
X175449994Y-93632112D01*
X177304216Y-91777891D01*
X177412603Y-91615679D01*
X177424135Y-91557703D01*
X177450663Y-91424337D01*
X177450663Y-91240622D01*
X177543748Y-91147699D01*
X177650541Y-90890513D01*
X177650784Y-90612035D01*
X177594930Y-90476858D01*
X177796000Y-90393777D01*
X177993085Y-90197036D01*
X178099878Y-89939850D01*
X178100121Y-89661372D01*
X177993777Y-89404000D01*
X177939950Y-89350079D01*
X177993085Y-89297036D01*
X178099878Y-89039850D01*
X178099928Y-88982468D01*
X178498451Y-88583945D01*
X178700628Y-88584121D01*
X178958000Y-88477777D01*
X179155085Y-88281036D01*
X179261878Y-88023850D01*
X179262121Y-87745372D01*
X179155777Y-87488000D01*
X178959036Y-87290915D01*
X178701850Y-87184122D01*
X178423372Y-87183879D01*
X178166000Y-87290223D01*
X177968915Y-87486964D01*
X177862122Y-87744150D01*
X177861944Y-87947660D01*
X177589052Y-88220552D01*
X177539850Y-88200122D01*
X177261372Y-88199879D01*
X177004000Y-88306223D01*
X176806915Y-88502964D01*
X176700122Y-88760150D01*
X176699879Y-89038628D01*
X176806223Y-89296000D01*
X176860050Y-89349921D01*
X176859972Y-89350000D01*
X176600000Y-89350000D01*
X176427792Y-89384254D01*
X176281802Y-89481802D01*
X175081802Y-90681802D01*
X174984254Y-90827792D01*
X174950000Y-91000000D01*
X174950000Y-91160129D01*
X174806915Y-91302964D01*
X174700122Y-91560150D01*
X174699879Y-91838628D01*
X174806223Y-92096000D01*
X175002964Y-92293085D01*
X175260150Y-92399878D01*
X175268009Y-92399885D01*
X174742900Y-92924994D01*
X174611372Y-92924879D01*
X174550000Y-92950237D01*
X174550000Y-81050000D01*
X186965532Y-81050000D01*
X186863437Y-81070308D01*
M02*
