M48
;DRILL file {KiCad (2016-04-26 BZR 6712, Git b92ad6f)-product} date 03/05/2016 22:18:13
;FORMAT={-:-/ absolute / metric / decimal}
FMAT,2
METRIC,TZ
T1C0.300
%
G90
G05
M71
T1
X174.75Y-93.625
X174.8Y-88.
X175.375Y-96.125
X175.4Y-91.7
X176.475Y-96.2
X176.8Y-81.4
X176.951Y-90.751
X177.Y-103.2
X177.2Y-102.2
X177.4Y-88.9
X177.4Y-89.8
X178.Y-97.1
X178.562Y-87.884
X182.8Y-96.
X183.7Y-96.
X184.7Y-96.
X185.492Y-96.473
X186.436Y-87.63
X186.5Y-82.4
X187.9Y-100.
X187.9Y-103.2
X188.722Y-91.694
X189.5Y-101.2
X189.738Y-91.186
X189.9Y-81.5
X190.3Y-92.1
X190.3Y-93.1
X190.6Y-82.6
X191.5Y-103.2
X191.95Y-100.45
X193.09Y-94.005
X193.131Y-93.106
X193.2Y-96.5
X193.9Y-90.2
X193.9Y-91.2
X194.109Y-94.009
X194.237Y-95.847
X194.818Y-90.17
X194.928Y-96.424
X195.9Y-101.6
X195.95Y-84.75
X196.052Y-81.996
X197.Y-81.25
X197.Y-95.6
X197.2Y-85.9
X197.2Y-93.1
X198.05Y-81.25
X198.2Y-89.9
X198.625Y-95.9
X199.136Y-89.916
X199.39Y-95.225
X199.4Y-101.3
X201.2Y-87.6
X201.2Y-96.4
X201.475Y-102.525
X201.7Y-85.2
X201.7Y-86.4
X202.4Y-90.4
X203.2Y-86.
X203.3Y-100.3
X203.6Y-87.7
X203.9Y-91.1
X204.Y-85.2
X204.3Y-100.7
X204.6Y-88.9
X204.875Y-102.625
X204.9Y-81.4
X205.5Y-100.7
X205.981Y-92.085
X206.5Y-100.7
X206.9Y-91.8
X207.622Y-89.546
X207.622Y-90.982
X207.65Y-95.125
X207.8Y-99.
X207.85Y-88.4
X208.2Y-81.4
X208.525Y-103.1
X209.429Y-91.65
T0
M30
