G04 #@! TF.FileFunction,Legend,Top*
%FSLAX46Y46*%
G04 Gerber Fmt 4.6, Leading zero omitted, Abs format (unit mm)*
G04 Created by KiCad (PCBNEW (2016-04-26 BZR 6712, Git b92ad6f)-product) date 03/05/2016 22:11:21*
%MOMM*%
%LPD*%
G01*
G04 APERTURE LIST*
%ADD10C,0.100000*%
%ADD11C,0.150000*%
%ADD12C,0.200000*%
%ADD13C,0.160000*%
G04 APERTURE END LIST*
D10*
D11*
X208650000Y-91000000D02*
X206950000Y-91000000D01*
D12*
X197400000Y-89800000D02*
X196900000Y-90300000D01*
X203500000Y-89800000D02*
X204000000Y-90300000D01*
X203500000Y-96900000D02*
X204000000Y-96400000D01*
X196900000Y-96400000D02*
X196900000Y-90300000D01*
X197400000Y-89800000D02*
X203500000Y-89800000D01*
X204000000Y-90300000D02*
X204000000Y-96400000D01*
X203500000Y-96900000D02*
X197400000Y-96900000D01*
X196900000Y-96400000D02*
X196400000Y-96900000D01*
X196400000Y-96900000D02*
X196900000Y-97400000D01*
X196900000Y-97400000D02*
X197400000Y-96900000D01*
X196900000Y-96400000D02*
X197400000Y-96900000D01*
X202151000Y-81965000D02*
X202151000Y-81330000D01*
X202151000Y-81330000D02*
X201516000Y-81330000D01*
X201516000Y-81330000D02*
X201516000Y-81965000D01*
X201516000Y-81965000D02*
X201516000Y-87045000D01*
X201516000Y-87045000D02*
X205580000Y-87045000D01*
X205580000Y-87045000D02*
X205580000Y-81965000D01*
X205580000Y-81965000D02*
X201516000Y-81965000D01*
D11*
X176500000Y-84500000D02*
X176500000Y-81700000D01*
X192000000Y-82500000D02*
X191800000Y-82500000D01*
X191800000Y-82500000D02*
X191800000Y-82400000D01*
X191800000Y-82400000D02*
X192000000Y-82400000D01*
X192000000Y-82400000D02*
X192000000Y-82500000D01*
X191500000Y-82500000D02*
X191500000Y-81900000D01*
X192300000Y-82500000D02*
X192300000Y-81900000D01*
X208500000Y-100000000D02*
X208500000Y-102800000D01*
X176500000Y-102800000D02*
X176500000Y-100000000D01*
X208500000Y-81700000D02*
X208500000Y-84500000D01*
X207600000Y-91800000D02*
X207300000Y-91800000D01*
X207300000Y-91800000D02*
X207300000Y-91900000D01*
X209500000Y-91900000D02*
X209500000Y-91800000D01*
X209500000Y-91800000D02*
X209200000Y-91800000D01*
X209200000Y-94000000D02*
X209500000Y-94000000D01*
X209500000Y-94000000D02*
X209500000Y-93900000D01*
X207300000Y-93900000D02*
X207300000Y-94000000D01*
X207300000Y-94000000D02*
X207600000Y-94000000D01*
D12*
X176300000Y-96800000D02*
X175800000Y-96800000D01*
X174600000Y-96600000D02*
X174600000Y-95800000D01*
X177500000Y-96600000D02*
X177500000Y-95800000D01*
X198200000Y-84300000D02*
X197700000Y-84300000D01*
X196500000Y-84100000D02*
X196500000Y-83300000D01*
X199400000Y-84100000D02*
X199400000Y-83300000D01*
D11*
X194580000Y-81392000D02*
X194480000Y-81392000D01*
X194580000Y-83592000D02*
X194480000Y-83592000D01*
X192380000Y-83592000D02*
X192480000Y-83592000D01*
X192380000Y-81392000D02*
X192480000Y-81392000D01*
X194580000Y-83592000D02*
X194580000Y-81392000D01*
X192380000Y-81392000D02*
X192380000Y-83592000D01*
X193480000Y-90120000D02*
X193380000Y-90120000D01*
X193480000Y-92320000D02*
X193380000Y-92320000D01*
X191280000Y-92320000D02*
X191380000Y-92320000D01*
X191280000Y-90120000D02*
X191380000Y-90120000D01*
X193480000Y-92320000D02*
X193480000Y-90120000D01*
X191280000Y-90120000D02*
X191280000Y-92320000D01*
X174580387Y-88166327D02*
X174680387Y-88166327D01*
X174580387Y-85966327D02*
X174680387Y-85966327D01*
X176780387Y-85966327D02*
X176680387Y-85966327D01*
X176780387Y-88166327D02*
X176680387Y-88166327D01*
X174580387Y-85966327D02*
X174580387Y-88166327D01*
X176780387Y-88166327D02*
X176780387Y-85966327D01*
X192250000Y-101320000D02*
X192250000Y-101420000D01*
X194450000Y-101320000D02*
X194450000Y-101420000D01*
X194450000Y-103520000D02*
X194450000Y-103420000D01*
X192250000Y-103520000D02*
X192250000Y-103420000D01*
X194450000Y-101320000D02*
X192250000Y-101320000D01*
X192250000Y-103520000D02*
X194450000Y-103520000D01*
X176780000Y-90620000D02*
X176680000Y-90620000D01*
X176780000Y-92820000D02*
X176680000Y-92820000D01*
X174580000Y-92820000D02*
X174680000Y-92820000D01*
X174580000Y-90620000D02*
X174680000Y-90620000D01*
X176780000Y-92820000D02*
X176780000Y-90620000D01*
X174580000Y-90620000D02*
X174580000Y-92820000D01*
D10*
G36*
X196465375Y-87736490D02*
X196465366Y-87801372D01*
X196465321Y-87856498D01*
X196465212Y-87902697D01*
X196465012Y-87940797D01*
X196464694Y-87971625D01*
X196464230Y-87996009D01*
X196463592Y-88014778D01*
X196462753Y-88028759D01*
X196461686Y-88038781D01*
X196460363Y-88045671D01*
X196458757Y-88050257D01*
X196456840Y-88053367D01*
X196454792Y-88055625D01*
X196445561Y-88063373D01*
X196439587Y-88066208D01*
X196433308Y-88067183D01*
X196416871Y-88070078D01*
X196390514Y-88074848D01*
X196354478Y-88081450D01*
X196309005Y-88089838D01*
X196254332Y-88099969D01*
X196190702Y-88111797D01*
X196118354Y-88125279D01*
X196037528Y-88140369D01*
X195948464Y-88157025D01*
X195922122Y-88161955D01*
X195893138Y-88167882D01*
X195872942Y-88173325D01*
X195859789Y-88178845D01*
X195852451Y-88184433D01*
X195848077Y-88191938D01*
X195840424Y-88208103D01*
X195829979Y-88231712D01*
X195817227Y-88261549D01*
X195802654Y-88296398D01*
X195786746Y-88335043D01*
X195769988Y-88376269D01*
X195752866Y-88418860D01*
X195735866Y-88461599D01*
X195719474Y-88503272D01*
X195704176Y-88542662D01*
X195690457Y-88578554D01*
X195678803Y-88609731D01*
X195669700Y-88634978D01*
X195663633Y-88653080D01*
X195661089Y-88662819D01*
X195661042Y-88663497D01*
X195662757Y-88669542D01*
X195668116Y-88680362D01*
X195677437Y-88696450D01*
X195691040Y-88718300D01*
X195709243Y-88746407D01*
X195732366Y-88781265D01*
X195760727Y-88823367D01*
X195794646Y-88873209D01*
X195825863Y-88918793D01*
X195856837Y-88964076D01*
X195886007Y-89007019D01*
X195912816Y-89046783D01*
X195936708Y-89082529D01*
X195957127Y-89113417D01*
X195973516Y-89138608D01*
X195985319Y-89157263D01*
X195991981Y-89168542D01*
X195993270Y-89171377D01*
X195992949Y-89174884D01*
X195990455Y-89180092D01*
X195985261Y-89187564D01*
X195976842Y-89197861D01*
X195964673Y-89211545D01*
X195948227Y-89229177D01*
X195926979Y-89251319D01*
X195900403Y-89278532D01*
X195867973Y-89311379D01*
X195829164Y-89350420D01*
X195783450Y-89396218D01*
X195773419Y-89406252D01*
X195726350Y-89453266D01*
X195686147Y-89493282D01*
X195652241Y-89526831D01*
X195624060Y-89554446D01*
X195601035Y-89576659D01*
X195582598Y-89594002D01*
X195568177Y-89607009D01*
X195557203Y-89616211D01*
X195549107Y-89622140D01*
X195543319Y-89625330D01*
X195539268Y-89626312D01*
X195538020Y-89626209D01*
X195530900Y-89622737D01*
X195516107Y-89613888D01*
X195494657Y-89600326D01*
X195467567Y-89582714D01*
X195435856Y-89561715D01*
X195400539Y-89537992D01*
X195362634Y-89512208D01*
X195352272Y-89505105D01*
X195311116Y-89476855D01*
X195270001Y-89448646D01*
X195230372Y-89421467D01*
X195193676Y-89396310D01*
X195161357Y-89374166D01*
X195134863Y-89356026D01*
X195115638Y-89342882D01*
X195115551Y-89342822D01*
X195091993Y-89327254D01*
X195070700Y-89314138D01*
X195053551Y-89304563D01*
X195042425Y-89299615D01*
X195040152Y-89299175D01*
X195032355Y-89301581D01*
X195016718Y-89308326D01*
X194994707Y-89318708D01*
X194967787Y-89332024D01*
X194937424Y-89347571D01*
X194918720Y-89357383D01*
X194887275Y-89373859D01*
X194858682Y-89388525D01*
X194834348Y-89400686D01*
X194815679Y-89409645D01*
X194804081Y-89414706D01*
X194801102Y-89415583D01*
X194792724Y-89411534D01*
X194785614Y-89403621D01*
X194782545Y-89397164D01*
X194775721Y-89381588D01*
X194765419Y-89357557D01*
X194751918Y-89325737D01*
X194735498Y-89286792D01*
X194716437Y-89241387D01*
X194695014Y-89190188D01*
X194671507Y-89133858D01*
X194646195Y-89073063D01*
X194619357Y-89008468D01*
X194591272Y-88940737D01*
X194568714Y-88886243D01*
X194530802Y-88794439D01*
X194496961Y-88712176D01*
X194467114Y-88639258D01*
X194441184Y-88575490D01*
X194419092Y-88520678D01*
X194400761Y-88474625D01*
X194386114Y-88437138D01*
X194375071Y-88408020D01*
X194367556Y-88387076D01*
X194363491Y-88374112D01*
X194362708Y-88369140D01*
X194368951Y-88360034D01*
X194382677Y-88347959D01*
X194400893Y-88335305D01*
X194435619Y-88312275D01*
X194472062Y-88286135D01*
X194507617Y-88258894D01*
X194539677Y-88232558D01*
X194565638Y-88209137D01*
X194569439Y-88205408D01*
X194623331Y-88144469D01*
X194668465Y-88078410D01*
X194704778Y-88008140D01*
X194732206Y-87934566D01*
X194750687Y-87858595D01*
X194760158Y-87781137D01*
X194760556Y-87703098D01*
X194751819Y-87625387D01*
X194733883Y-87548911D01*
X194706686Y-87474579D01*
X194670164Y-87403297D01*
X194629208Y-87342420D01*
X194574132Y-87278221D01*
X194512986Y-87222552D01*
X194446316Y-87175686D01*
X194374667Y-87137894D01*
X194298587Y-87109446D01*
X194218620Y-87090615D01*
X194135315Y-87081671D01*
X194102646Y-87080921D01*
X194017759Y-87085872D01*
X193936661Y-87100691D01*
X193859479Y-87125327D01*
X193786338Y-87159730D01*
X193717365Y-87203849D01*
X193652688Y-87257634D01*
X193646441Y-87263561D01*
X193588903Y-87325595D01*
X193541023Y-87391955D01*
X193502791Y-87462662D01*
X193474197Y-87537740D01*
X193455232Y-87617209D01*
X193445886Y-87701091D01*
X193445377Y-87712312D01*
X193446360Y-87793171D01*
X193455923Y-87869031D01*
X193474425Y-87941556D01*
X193502225Y-88012413D01*
X193516261Y-88041112D01*
X193552860Y-88103314D01*
X193596462Y-88161255D01*
X193647885Y-88215771D01*
X193707948Y-88267698D01*
X193777469Y-88317871D01*
X193804399Y-88335305D01*
X193823407Y-88348573D01*
X193836822Y-88360548D01*
X193842583Y-88369140D01*
X193841503Y-88375213D01*
X193837042Y-88389093D01*
X193829122Y-88410974D01*
X193817665Y-88441053D01*
X193802594Y-88479524D01*
X193783831Y-88526582D01*
X193761298Y-88582423D01*
X193734918Y-88647242D01*
X193704612Y-88721234D01*
X193670303Y-88804594D01*
X193636577Y-88886243D01*
X193607714Y-88955956D01*
X193579880Y-89023050D01*
X193553356Y-89086862D01*
X193528419Y-89146727D01*
X193505349Y-89201979D01*
X193484424Y-89251954D01*
X193465923Y-89295987D01*
X193450125Y-89333413D01*
X193437308Y-89363567D01*
X193427752Y-89385785D01*
X193421734Y-89399401D01*
X193419677Y-89403621D01*
X193411222Y-89412573D01*
X193404189Y-89415583D01*
X193397509Y-89413193D01*
X193382913Y-89406489D01*
X193361808Y-89396165D01*
X193335601Y-89382919D01*
X193305699Y-89367445D01*
X193286572Y-89357383D01*
X193254877Y-89340859D01*
X193225772Y-89326157D01*
X193200721Y-89313980D01*
X193181191Y-89305030D01*
X193168647Y-89300009D01*
X193165140Y-89299175D01*
X193156825Y-89302057D01*
X193141766Y-89309985D01*
X193121841Y-89321871D01*
X193098930Y-89336626D01*
X193089740Y-89342822D01*
X193070561Y-89355935D01*
X193044104Y-89374049D01*
X193011815Y-89396173D01*
X192975140Y-89421315D01*
X192935524Y-89448486D01*
X192894413Y-89476692D01*
X192853253Y-89504944D01*
X192853020Y-89505105D01*
X192814599Y-89531324D01*
X192778497Y-89555659D01*
X192745729Y-89577445D01*
X192717314Y-89596021D01*
X192694269Y-89610722D01*
X192677610Y-89620886D01*
X192668355Y-89625849D01*
X192667271Y-89626209D01*
X192663751Y-89625953D01*
X192658717Y-89623700D01*
X192651602Y-89618917D01*
X192641834Y-89611073D01*
X192628845Y-89599634D01*
X192612063Y-89584069D01*
X192590921Y-89563846D01*
X192564847Y-89538431D01*
X192533273Y-89507292D01*
X192495628Y-89469897D01*
X192451342Y-89425714D01*
X192431872Y-89406252D01*
X192384667Y-89358986D01*
X192344474Y-89318590D01*
X192310771Y-89284504D01*
X192283033Y-89256168D01*
X192260735Y-89233023D01*
X192243354Y-89214508D01*
X192230366Y-89200064D01*
X192221247Y-89189132D01*
X192215471Y-89181152D01*
X192212516Y-89175563D01*
X192211857Y-89171807D01*
X192211922Y-89171377D01*
X192215320Y-89164775D01*
X192224186Y-89150311D01*
X192237965Y-89128824D01*
X192256101Y-89101153D01*
X192278038Y-89068137D01*
X192303219Y-89030615D01*
X192331089Y-88989427D01*
X192361091Y-88945411D01*
X192379328Y-88918802D01*
X192417905Y-88862476D01*
X192450668Y-88814279D01*
X192477940Y-88773716D01*
X192500041Y-88740289D01*
X192517291Y-88713504D01*
X192530010Y-88692864D01*
X192538519Y-88677872D01*
X192543139Y-88668034D01*
X192544250Y-88663506D01*
X192542289Y-88655156D01*
X192536732Y-88638258D01*
X192528063Y-88614028D01*
X192516770Y-88583680D01*
X192503336Y-88548432D01*
X192488248Y-88509499D01*
X192471993Y-88468097D01*
X192455055Y-88425441D01*
X192437920Y-88382748D01*
X192421075Y-88341233D01*
X192405005Y-88302112D01*
X192390195Y-88266601D01*
X192377132Y-88235916D01*
X192366301Y-88211272D01*
X192358188Y-88193886D01*
X192353279Y-88184973D01*
X192352841Y-88184433D01*
X192344601Y-88178351D01*
X192330916Y-88172863D01*
X192310039Y-88167405D01*
X192283169Y-88161962D01*
X192198200Y-88146076D01*
X192119551Y-88131395D01*
X192047642Y-88117995D01*
X191982896Y-88105956D01*
X191925734Y-88095354D01*
X191876579Y-88086268D01*
X191835853Y-88078777D01*
X191803978Y-88072958D01*
X191781375Y-88068888D01*
X191768466Y-88066648D01*
X191765448Y-88066208D01*
X191758870Y-88062823D01*
X191750500Y-88055625D01*
X191748275Y-88053139D01*
X191746385Y-88049935D01*
X191744804Y-88045185D01*
X191743505Y-88038060D01*
X191742458Y-88027733D01*
X191741638Y-88013376D01*
X191741016Y-87994160D01*
X191740565Y-87969258D01*
X191740258Y-87937842D01*
X191740067Y-87899084D01*
X191739965Y-87852156D01*
X191739924Y-87796230D01*
X191739917Y-87736490D01*
X191739958Y-87669134D01*
X191740095Y-87611632D01*
X191740342Y-87563257D01*
X191740715Y-87523282D01*
X191741232Y-87490977D01*
X191741907Y-87465615D01*
X191742757Y-87446468D01*
X191743798Y-87432807D01*
X191745046Y-87423905D01*
X191746517Y-87419033D01*
X191746941Y-87418332D01*
X191757110Y-87411346D01*
X191776193Y-87404910D01*
X191790597Y-87401699D01*
X191803052Y-87399339D01*
X191824739Y-87395264D01*
X191854484Y-87389692D01*
X191891115Y-87382843D01*
X191933459Y-87374936D01*
X191980341Y-87366190D01*
X192030590Y-87356824D01*
X192083032Y-87347058D01*
X192089167Y-87345916D01*
X192140754Y-87336212D01*
X192189424Y-87326860D01*
X192234136Y-87318075D01*
X192273848Y-87310070D01*
X192307519Y-87303059D01*
X192334110Y-87297255D01*
X192352579Y-87292873D01*
X192361885Y-87290125D01*
X192362558Y-87289789D01*
X192367164Y-87283351D01*
X192375237Y-87268318D01*
X192386255Y-87245898D01*
X192399695Y-87217300D01*
X192415037Y-87183730D01*
X192431759Y-87146399D01*
X192449339Y-87106512D01*
X192467256Y-87065280D01*
X192484988Y-87023909D01*
X192502013Y-86983609D01*
X192517810Y-86945586D01*
X192531858Y-86911050D01*
X192543634Y-86881209D01*
X192552617Y-86857269D01*
X192558285Y-86840441D01*
X192560125Y-86832185D01*
X192558807Y-86826674D01*
X192554606Y-86817494D01*
X192547150Y-86804069D01*
X192536069Y-86785825D01*
X192520992Y-86762185D01*
X192501547Y-86732574D01*
X192477363Y-86696419D01*
X192448070Y-86653142D01*
X192413296Y-86602168D01*
X192387182Y-86564058D01*
X192355450Y-86517662D01*
X192325518Y-86473605D01*
X192297927Y-86432702D01*
X192273219Y-86395771D01*
X192251935Y-86363629D01*
X192234617Y-86337092D01*
X192221807Y-86316978D01*
X192214045Y-86304104D01*
X192211838Y-86299581D01*
X192212243Y-86296018D01*
X192214909Y-86290663D01*
X192220358Y-86282956D01*
X192229115Y-86272339D01*
X192241703Y-86258253D01*
X192258646Y-86240138D01*
X192280466Y-86217436D01*
X192307689Y-86189588D01*
X192340836Y-86156035D01*
X192380432Y-86116218D01*
X192427000Y-86069578D01*
X192431153Y-86065424D01*
X192484937Y-86011815D01*
X192531502Y-85965776D01*
X192570936Y-85927224D01*
X192603328Y-85896073D01*
X192628768Y-85872240D01*
X192647343Y-85855639D01*
X192659143Y-85846186D01*
X192663885Y-85843708D01*
X192670137Y-85846637D01*
X192684286Y-85855073D01*
X192705535Y-85868490D01*
X192733085Y-85886362D01*
X192766138Y-85908163D01*
X192803897Y-85933367D01*
X192845563Y-85961447D01*
X192890338Y-85991879D01*
X192933603Y-86021508D01*
X192990744Y-86060697D01*
X193039801Y-86094152D01*
X193081339Y-86122237D01*
X193115924Y-86145319D01*
X193144118Y-86163762D01*
X193166488Y-86177933D01*
X193183598Y-86188195D01*
X193196013Y-86194916D01*
X193204297Y-86198461D01*
X193208268Y-86199255D01*
X193217328Y-86197249D01*
X193234653Y-86191600D01*
X193259008Y-86182816D01*
X193289158Y-86171409D01*
X193323868Y-86157885D01*
X193361901Y-86142756D01*
X193402023Y-86126531D01*
X193442998Y-86109717D01*
X193483591Y-86092826D01*
X193522567Y-86076366D01*
X193558690Y-86060846D01*
X193590725Y-86046776D01*
X193617437Y-86034666D01*
X193637590Y-86025023D01*
X193649949Y-86018358D01*
X193653265Y-86015795D01*
X193655483Y-86008763D01*
X193659409Y-85992269D01*
X193664850Y-85967265D01*
X193671616Y-85934700D01*
X193679513Y-85895525D01*
X193688351Y-85850691D01*
X193697937Y-85801147D01*
X193708080Y-85747845D01*
X193717382Y-85698220D01*
X193730259Y-85629387D01*
X193741448Y-85570391D01*
X193751074Y-85520639D01*
X193759260Y-85479541D01*
X193766130Y-85446507D01*
X193771809Y-85420943D01*
X193776421Y-85402261D01*
X193780090Y-85389867D01*
X193782940Y-85383173D01*
X193783790Y-85382042D01*
X193786305Y-85380085D01*
X193790171Y-85378422D01*
X193796204Y-85377030D01*
X193805224Y-85375885D01*
X193818050Y-85374963D01*
X193835498Y-85374240D01*
X193858388Y-85373692D01*
X193887537Y-85373296D01*
X193923765Y-85373028D01*
X193967889Y-85372863D01*
X194020727Y-85372779D01*
X194083099Y-85372751D01*
X194102646Y-85372750D01*
X194167642Y-85372758D01*
X194222881Y-85372803D01*
X194269189Y-85372911D01*
X194307394Y-85373110D01*
X194338322Y-85373427D01*
X194362799Y-85373889D01*
X194381652Y-85374523D01*
X194395707Y-85375358D01*
X194405790Y-85376419D01*
X194412729Y-85377736D01*
X194417350Y-85379334D01*
X194420479Y-85381241D01*
X194422792Y-85383333D01*
X194430568Y-85392897D01*
X194433375Y-85399442D01*
X194434355Y-85407663D01*
X194437151Y-85424951D01*
X194441545Y-85450180D01*
X194447321Y-85482222D01*
X194454261Y-85519950D01*
X194462149Y-85562236D01*
X194470767Y-85607954D01*
X194479899Y-85655976D01*
X194489327Y-85705175D01*
X194498834Y-85754424D01*
X194508204Y-85802594D01*
X194517219Y-85848560D01*
X194525661Y-85891193D01*
X194533315Y-85929366D01*
X194539964Y-85961953D01*
X194545389Y-85987825D01*
X194549374Y-86005856D01*
X194551702Y-86014918D01*
X194552022Y-86015687D01*
X194558384Y-86020032D01*
X194573375Y-86027703D01*
X194595761Y-86038191D01*
X194624307Y-86050985D01*
X194657779Y-86065577D01*
X194694942Y-86081458D01*
X194734561Y-86098118D01*
X194775402Y-86115047D01*
X194816230Y-86131737D01*
X194855811Y-86147677D01*
X194892909Y-86162360D01*
X194926292Y-86175274D01*
X194954722Y-86185912D01*
X194976968Y-86193763D01*
X194991792Y-86198319D01*
X194997030Y-86199275D01*
X195000211Y-86199097D01*
X195003925Y-86198307D01*
X195008728Y-86196537D01*
X195015176Y-86193420D01*
X195023827Y-86188588D01*
X195035238Y-86181674D01*
X195049964Y-86172311D01*
X195068563Y-86160132D01*
X195091592Y-86144770D01*
X195119608Y-86125856D01*
X195153166Y-86103025D01*
X195192824Y-86075908D01*
X195239139Y-86044139D01*
X195292666Y-86007350D01*
X195353964Y-85965173D01*
X195401252Y-85932621D01*
X195434360Y-85910076D01*
X195465072Y-85889634D01*
X195492203Y-85872048D01*
X195514566Y-85858071D01*
X195530975Y-85848454D01*
X195540244Y-85843950D01*
X195541410Y-85843708D01*
X195547591Y-85847225D01*
X195560484Y-85857831D01*
X195580178Y-85875610D01*
X195606760Y-85900644D01*
X195640315Y-85933016D01*
X195680931Y-85972808D01*
X195728695Y-86020104D01*
X195774138Y-86065424D01*
X195821303Y-86112651D01*
X195861454Y-86153009D01*
X195895112Y-86187057D01*
X195922802Y-86215353D01*
X195945047Y-86238458D01*
X195962371Y-86256929D01*
X195975298Y-86271325D01*
X195984349Y-86282206D01*
X195990050Y-86290130D01*
X195992924Y-86295657D01*
X195993494Y-86299345D01*
X195993455Y-86299581D01*
X195990086Y-86306131D01*
X195981238Y-86320569D01*
X195967455Y-86342079D01*
X195949276Y-86369844D01*
X195927244Y-86403046D01*
X195901900Y-86440869D01*
X195873785Y-86482496D01*
X195843441Y-86527110D01*
X195818111Y-86564132D01*
X195779461Y-86620599D01*
X195746540Y-86668985D01*
X195718982Y-86709860D01*
X195696418Y-86743793D01*
X195678482Y-86771354D01*
X195664806Y-86793113D01*
X195655023Y-86809638D01*
X195648765Y-86821501D01*
X195645664Y-86829270D01*
X195645167Y-86832258D01*
X195647243Y-86841286D01*
X195653125Y-86858562D01*
X195662290Y-86882876D01*
X195674217Y-86913022D01*
X195688384Y-86947791D01*
X195704270Y-86985975D01*
X195721352Y-87026366D01*
X195739110Y-87067756D01*
X195757022Y-87108937D01*
X195774565Y-87148701D01*
X195791219Y-87185840D01*
X195806461Y-87219145D01*
X195819771Y-87247409D01*
X195830626Y-87269424D01*
X195838504Y-87283981D01*
X195842734Y-87289789D01*
X195850071Y-87292182D01*
X195866781Y-87296253D01*
X195891821Y-87301788D01*
X195924152Y-87308573D01*
X195962733Y-87316396D01*
X196006523Y-87325041D01*
X196054480Y-87334296D01*
X196105565Y-87343946D01*
X196116125Y-87345916D01*
X196168744Y-87355715D01*
X196219305Y-87365138D01*
X196266636Y-87373966D01*
X196309563Y-87381981D01*
X196346912Y-87388964D01*
X196377511Y-87394694D01*
X196400187Y-87398953D01*
X196413766Y-87401521D01*
X196414694Y-87401699D01*
X196438159Y-87407527D01*
X196453672Y-87414273D01*
X196458350Y-87418332D01*
X196459882Y-87422268D01*
X196461187Y-87430043D01*
X196462281Y-87442385D01*
X196463179Y-87460024D01*
X196463899Y-87483686D01*
X196464455Y-87514101D01*
X196464865Y-87551995D01*
X196465143Y-87598097D01*
X196465307Y-87653136D01*
X196465372Y-87717838D01*
X196465375Y-87736490D01*
X196465375Y-87736490D01*
X196465375Y-87736490D01*
G37*
X196465375Y-87736490D02*
X196465366Y-87801372D01*
X196465321Y-87856498D01*
X196465212Y-87902697D01*
X196465012Y-87940797D01*
X196464694Y-87971625D01*
X196464230Y-87996009D01*
X196463592Y-88014778D01*
X196462753Y-88028759D01*
X196461686Y-88038781D01*
X196460363Y-88045671D01*
X196458757Y-88050257D01*
X196456840Y-88053367D01*
X196454792Y-88055625D01*
X196445561Y-88063373D01*
X196439587Y-88066208D01*
X196433308Y-88067183D01*
X196416871Y-88070078D01*
X196390514Y-88074848D01*
X196354478Y-88081450D01*
X196309005Y-88089838D01*
X196254332Y-88099969D01*
X196190702Y-88111797D01*
X196118354Y-88125279D01*
X196037528Y-88140369D01*
X195948464Y-88157025D01*
X195922122Y-88161955D01*
X195893138Y-88167882D01*
X195872942Y-88173325D01*
X195859789Y-88178845D01*
X195852451Y-88184433D01*
X195848077Y-88191938D01*
X195840424Y-88208103D01*
X195829979Y-88231712D01*
X195817227Y-88261549D01*
X195802654Y-88296398D01*
X195786746Y-88335043D01*
X195769988Y-88376269D01*
X195752866Y-88418860D01*
X195735866Y-88461599D01*
X195719474Y-88503272D01*
X195704176Y-88542662D01*
X195690457Y-88578554D01*
X195678803Y-88609731D01*
X195669700Y-88634978D01*
X195663633Y-88653080D01*
X195661089Y-88662819D01*
X195661042Y-88663497D01*
X195662757Y-88669542D01*
X195668116Y-88680362D01*
X195677437Y-88696450D01*
X195691040Y-88718300D01*
X195709243Y-88746407D01*
X195732366Y-88781265D01*
X195760727Y-88823367D01*
X195794646Y-88873209D01*
X195825863Y-88918793D01*
X195856837Y-88964076D01*
X195886007Y-89007019D01*
X195912816Y-89046783D01*
X195936708Y-89082529D01*
X195957127Y-89113417D01*
X195973516Y-89138608D01*
X195985319Y-89157263D01*
X195991981Y-89168542D01*
X195993270Y-89171377D01*
X195992949Y-89174884D01*
X195990455Y-89180092D01*
X195985261Y-89187564D01*
X195976842Y-89197861D01*
X195964673Y-89211545D01*
X195948227Y-89229177D01*
X195926979Y-89251319D01*
X195900403Y-89278532D01*
X195867973Y-89311379D01*
X195829164Y-89350420D01*
X195783450Y-89396218D01*
X195773419Y-89406252D01*
X195726350Y-89453266D01*
X195686147Y-89493282D01*
X195652241Y-89526831D01*
X195624060Y-89554446D01*
X195601035Y-89576659D01*
X195582598Y-89594002D01*
X195568177Y-89607009D01*
X195557203Y-89616211D01*
X195549107Y-89622140D01*
X195543319Y-89625330D01*
X195539268Y-89626312D01*
X195538020Y-89626209D01*
X195530900Y-89622737D01*
X195516107Y-89613888D01*
X195494657Y-89600326D01*
X195467567Y-89582714D01*
X195435856Y-89561715D01*
X195400539Y-89537992D01*
X195362634Y-89512208D01*
X195352272Y-89505105D01*
X195311116Y-89476855D01*
X195270001Y-89448646D01*
X195230372Y-89421467D01*
X195193676Y-89396310D01*
X195161357Y-89374166D01*
X195134863Y-89356026D01*
X195115638Y-89342882D01*
X195115551Y-89342822D01*
X195091993Y-89327254D01*
X195070700Y-89314138D01*
X195053551Y-89304563D01*
X195042425Y-89299615D01*
X195040152Y-89299175D01*
X195032355Y-89301581D01*
X195016718Y-89308326D01*
X194994707Y-89318708D01*
X194967787Y-89332024D01*
X194937424Y-89347571D01*
X194918720Y-89357383D01*
X194887275Y-89373859D01*
X194858682Y-89388525D01*
X194834348Y-89400686D01*
X194815679Y-89409645D01*
X194804081Y-89414706D01*
X194801102Y-89415583D01*
X194792724Y-89411534D01*
X194785614Y-89403621D01*
X194782545Y-89397164D01*
X194775721Y-89381588D01*
X194765419Y-89357557D01*
X194751918Y-89325737D01*
X194735498Y-89286792D01*
X194716437Y-89241387D01*
X194695014Y-89190188D01*
X194671507Y-89133858D01*
X194646195Y-89073063D01*
X194619357Y-89008468D01*
X194591272Y-88940737D01*
X194568714Y-88886243D01*
X194530802Y-88794439D01*
X194496961Y-88712176D01*
X194467114Y-88639258D01*
X194441184Y-88575490D01*
X194419092Y-88520678D01*
X194400761Y-88474625D01*
X194386114Y-88437138D01*
X194375071Y-88408020D01*
X194367556Y-88387076D01*
X194363491Y-88374112D01*
X194362708Y-88369140D01*
X194368951Y-88360034D01*
X194382677Y-88347959D01*
X194400893Y-88335305D01*
X194435619Y-88312275D01*
X194472062Y-88286135D01*
X194507617Y-88258894D01*
X194539677Y-88232558D01*
X194565638Y-88209137D01*
X194569439Y-88205408D01*
X194623331Y-88144469D01*
X194668465Y-88078410D01*
X194704778Y-88008140D01*
X194732206Y-87934566D01*
X194750687Y-87858595D01*
X194760158Y-87781137D01*
X194760556Y-87703098D01*
X194751819Y-87625387D01*
X194733883Y-87548911D01*
X194706686Y-87474579D01*
X194670164Y-87403297D01*
X194629208Y-87342420D01*
X194574132Y-87278221D01*
X194512986Y-87222552D01*
X194446316Y-87175686D01*
X194374667Y-87137894D01*
X194298587Y-87109446D01*
X194218620Y-87090615D01*
X194135315Y-87081671D01*
X194102646Y-87080921D01*
X194017759Y-87085872D01*
X193936661Y-87100691D01*
X193859479Y-87125327D01*
X193786338Y-87159730D01*
X193717365Y-87203849D01*
X193652688Y-87257634D01*
X193646441Y-87263561D01*
X193588903Y-87325595D01*
X193541023Y-87391955D01*
X193502791Y-87462662D01*
X193474197Y-87537740D01*
X193455232Y-87617209D01*
X193445886Y-87701091D01*
X193445377Y-87712312D01*
X193446360Y-87793171D01*
X193455923Y-87869031D01*
X193474425Y-87941556D01*
X193502225Y-88012413D01*
X193516261Y-88041112D01*
X193552860Y-88103314D01*
X193596462Y-88161255D01*
X193647885Y-88215771D01*
X193707948Y-88267698D01*
X193777469Y-88317871D01*
X193804399Y-88335305D01*
X193823407Y-88348573D01*
X193836822Y-88360548D01*
X193842583Y-88369140D01*
X193841503Y-88375213D01*
X193837042Y-88389093D01*
X193829122Y-88410974D01*
X193817665Y-88441053D01*
X193802594Y-88479524D01*
X193783831Y-88526582D01*
X193761298Y-88582423D01*
X193734918Y-88647242D01*
X193704612Y-88721234D01*
X193670303Y-88804594D01*
X193636577Y-88886243D01*
X193607714Y-88955956D01*
X193579880Y-89023050D01*
X193553356Y-89086862D01*
X193528419Y-89146727D01*
X193505349Y-89201979D01*
X193484424Y-89251954D01*
X193465923Y-89295987D01*
X193450125Y-89333413D01*
X193437308Y-89363567D01*
X193427752Y-89385785D01*
X193421734Y-89399401D01*
X193419677Y-89403621D01*
X193411222Y-89412573D01*
X193404189Y-89415583D01*
X193397509Y-89413193D01*
X193382913Y-89406489D01*
X193361808Y-89396165D01*
X193335601Y-89382919D01*
X193305699Y-89367445D01*
X193286572Y-89357383D01*
X193254877Y-89340859D01*
X193225772Y-89326157D01*
X193200721Y-89313980D01*
X193181191Y-89305030D01*
X193168647Y-89300009D01*
X193165140Y-89299175D01*
X193156825Y-89302057D01*
X193141766Y-89309985D01*
X193121841Y-89321871D01*
X193098930Y-89336626D01*
X193089740Y-89342822D01*
X193070561Y-89355935D01*
X193044104Y-89374049D01*
X193011815Y-89396173D01*
X192975140Y-89421315D01*
X192935524Y-89448486D01*
X192894413Y-89476692D01*
X192853253Y-89504944D01*
X192853020Y-89505105D01*
X192814599Y-89531324D01*
X192778497Y-89555659D01*
X192745729Y-89577445D01*
X192717314Y-89596021D01*
X192694269Y-89610722D01*
X192677610Y-89620886D01*
X192668355Y-89625849D01*
X192667271Y-89626209D01*
X192663751Y-89625953D01*
X192658717Y-89623700D01*
X192651602Y-89618917D01*
X192641834Y-89611073D01*
X192628845Y-89599634D01*
X192612063Y-89584069D01*
X192590921Y-89563846D01*
X192564847Y-89538431D01*
X192533273Y-89507292D01*
X192495628Y-89469897D01*
X192451342Y-89425714D01*
X192431872Y-89406252D01*
X192384667Y-89358986D01*
X192344474Y-89318590D01*
X192310771Y-89284504D01*
X192283033Y-89256168D01*
X192260735Y-89233023D01*
X192243354Y-89214508D01*
X192230366Y-89200064D01*
X192221247Y-89189132D01*
X192215471Y-89181152D01*
X192212516Y-89175563D01*
X192211857Y-89171807D01*
X192211922Y-89171377D01*
X192215320Y-89164775D01*
X192224186Y-89150311D01*
X192237965Y-89128824D01*
X192256101Y-89101153D01*
X192278038Y-89068137D01*
X192303219Y-89030615D01*
X192331089Y-88989427D01*
X192361091Y-88945411D01*
X192379328Y-88918802D01*
X192417905Y-88862476D01*
X192450668Y-88814279D01*
X192477940Y-88773716D01*
X192500041Y-88740289D01*
X192517291Y-88713504D01*
X192530010Y-88692864D01*
X192538519Y-88677872D01*
X192543139Y-88668034D01*
X192544250Y-88663506D01*
X192542289Y-88655156D01*
X192536732Y-88638258D01*
X192528063Y-88614028D01*
X192516770Y-88583680D01*
X192503336Y-88548432D01*
X192488248Y-88509499D01*
X192471993Y-88468097D01*
X192455055Y-88425441D01*
X192437920Y-88382748D01*
X192421075Y-88341233D01*
X192405005Y-88302112D01*
X192390195Y-88266601D01*
X192377132Y-88235916D01*
X192366301Y-88211272D01*
X192358188Y-88193886D01*
X192353279Y-88184973D01*
X192352841Y-88184433D01*
X192344601Y-88178351D01*
X192330916Y-88172863D01*
X192310039Y-88167405D01*
X192283169Y-88161962D01*
X192198200Y-88146076D01*
X192119551Y-88131395D01*
X192047642Y-88117995D01*
X191982896Y-88105956D01*
X191925734Y-88095354D01*
X191876579Y-88086268D01*
X191835853Y-88078777D01*
X191803978Y-88072958D01*
X191781375Y-88068888D01*
X191768466Y-88066648D01*
X191765448Y-88066208D01*
X191758870Y-88062823D01*
X191750500Y-88055625D01*
X191748275Y-88053139D01*
X191746385Y-88049935D01*
X191744804Y-88045185D01*
X191743505Y-88038060D01*
X191742458Y-88027733D01*
X191741638Y-88013376D01*
X191741016Y-87994160D01*
X191740565Y-87969258D01*
X191740258Y-87937842D01*
X191740067Y-87899084D01*
X191739965Y-87852156D01*
X191739924Y-87796230D01*
X191739917Y-87736490D01*
X191739958Y-87669134D01*
X191740095Y-87611632D01*
X191740342Y-87563257D01*
X191740715Y-87523282D01*
X191741232Y-87490977D01*
X191741907Y-87465615D01*
X191742757Y-87446468D01*
X191743798Y-87432807D01*
X191745046Y-87423905D01*
X191746517Y-87419033D01*
X191746941Y-87418332D01*
X191757110Y-87411346D01*
X191776193Y-87404910D01*
X191790597Y-87401699D01*
X191803052Y-87399339D01*
X191824739Y-87395264D01*
X191854484Y-87389692D01*
X191891115Y-87382843D01*
X191933459Y-87374936D01*
X191980341Y-87366190D01*
X192030590Y-87356824D01*
X192083032Y-87347058D01*
X192089167Y-87345916D01*
X192140754Y-87336212D01*
X192189424Y-87326860D01*
X192234136Y-87318075D01*
X192273848Y-87310070D01*
X192307519Y-87303059D01*
X192334110Y-87297255D01*
X192352579Y-87292873D01*
X192361885Y-87290125D01*
X192362558Y-87289789D01*
X192367164Y-87283351D01*
X192375237Y-87268318D01*
X192386255Y-87245898D01*
X192399695Y-87217300D01*
X192415037Y-87183730D01*
X192431759Y-87146399D01*
X192449339Y-87106512D01*
X192467256Y-87065280D01*
X192484988Y-87023909D01*
X192502013Y-86983609D01*
X192517810Y-86945586D01*
X192531858Y-86911050D01*
X192543634Y-86881209D01*
X192552617Y-86857269D01*
X192558285Y-86840441D01*
X192560125Y-86832185D01*
X192558807Y-86826674D01*
X192554606Y-86817494D01*
X192547150Y-86804069D01*
X192536069Y-86785825D01*
X192520992Y-86762185D01*
X192501547Y-86732574D01*
X192477363Y-86696419D01*
X192448070Y-86653142D01*
X192413296Y-86602168D01*
X192387182Y-86564058D01*
X192355450Y-86517662D01*
X192325518Y-86473605D01*
X192297927Y-86432702D01*
X192273219Y-86395771D01*
X192251935Y-86363629D01*
X192234617Y-86337092D01*
X192221807Y-86316978D01*
X192214045Y-86304104D01*
X192211838Y-86299581D01*
X192212243Y-86296018D01*
X192214909Y-86290663D01*
X192220358Y-86282956D01*
X192229115Y-86272339D01*
X192241703Y-86258253D01*
X192258646Y-86240138D01*
X192280466Y-86217436D01*
X192307689Y-86189588D01*
X192340836Y-86156035D01*
X192380432Y-86116218D01*
X192427000Y-86069578D01*
X192431153Y-86065424D01*
X192484937Y-86011815D01*
X192531502Y-85965776D01*
X192570936Y-85927224D01*
X192603328Y-85896073D01*
X192628768Y-85872240D01*
X192647343Y-85855639D01*
X192659143Y-85846186D01*
X192663885Y-85843708D01*
X192670137Y-85846637D01*
X192684286Y-85855073D01*
X192705535Y-85868490D01*
X192733085Y-85886362D01*
X192766138Y-85908163D01*
X192803897Y-85933367D01*
X192845563Y-85961447D01*
X192890338Y-85991879D01*
X192933603Y-86021508D01*
X192990744Y-86060697D01*
X193039801Y-86094152D01*
X193081339Y-86122237D01*
X193115924Y-86145319D01*
X193144118Y-86163762D01*
X193166488Y-86177933D01*
X193183598Y-86188195D01*
X193196013Y-86194916D01*
X193204297Y-86198461D01*
X193208268Y-86199255D01*
X193217328Y-86197249D01*
X193234653Y-86191600D01*
X193259008Y-86182816D01*
X193289158Y-86171409D01*
X193323868Y-86157885D01*
X193361901Y-86142756D01*
X193402023Y-86126531D01*
X193442998Y-86109717D01*
X193483591Y-86092826D01*
X193522567Y-86076366D01*
X193558690Y-86060846D01*
X193590725Y-86046776D01*
X193617437Y-86034666D01*
X193637590Y-86025023D01*
X193649949Y-86018358D01*
X193653265Y-86015795D01*
X193655483Y-86008763D01*
X193659409Y-85992269D01*
X193664850Y-85967265D01*
X193671616Y-85934700D01*
X193679513Y-85895525D01*
X193688351Y-85850691D01*
X193697937Y-85801147D01*
X193708080Y-85747845D01*
X193717382Y-85698220D01*
X193730259Y-85629387D01*
X193741448Y-85570391D01*
X193751074Y-85520639D01*
X193759260Y-85479541D01*
X193766130Y-85446507D01*
X193771809Y-85420943D01*
X193776421Y-85402261D01*
X193780090Y-85389867D01*
X193782940Y-85383173D01*
X193783790Y-85382042D01*
X193786305Y-85380085D01*
X193790171Y-85378422D01*
X193796204Y-85377030D01*
X193805224Y-85375885D01*
X193818050Y-85374963D01*
X193835498Y-85374240D01*
X193858388Y-85373692D01*
X193887537Y-85373296D01*
X193923765Y-85373028D01*
X193967889Y-85372863D01*
X194020727Y-85372779D01*
X194083099Y-85372751D01*
X194102646Y-85372750D01*
X194167642Y-85372758D01*
X194222881Y-85372803D01*
X194269189Y-85372911D01*
X194307394Y-85373110D01*
X194338322Y-85373427D01*
X194362799Y-85373889D01*
X194381652Y-85374523D01*
X194395707Y-85375358D01*
X194405790Y-85376419D01*
X194412729Y-85377736D01*
X194417350Y-85379334D01*
X194420479Y-85381241D01*
X194422792Y-85383333D01*
X194430568Y-85392897D01*
X194433375Y-85399442D01*
X194434355Y-85407663D01*
X194437151Y-85424951D01*
X194441545Y-85450180D01*
X194447321Y-85482222D01*
X194454261Y-85519950D01*
X194462149Y-85562236D01*
X194470767Y-85607954D01*
X194479899Y-85655976D01*
X194489327Y-85705175D01*
X194498834Y-85754424D01*
X194508204Y-85802594D01*
X194517219Y-85848560D01*
X194525661Y-85891193D01*
X194533315Y-85929366D01*
X194539964Y-85961953D01*
X194545389Y-85987825D01*
X194549374Y-86005856D01*
X194551702Y-86014918D01*
X194552022Y-86015687D01*
X194558384Y-86020032D01*
X194573375Y-86027703D01*
X194595761Y-86038191D01*
X194624307Y-86050985D01*
X194657779Y-86065577D01*
X194694942Y-86081458D01*
X194734561Y-86098118D01*
X194775402Y-86115047D01*
X194816230Y-86131737D01*
X194855811Y-86147677D01*
X194892909Y-86162360D01*
X194926292Y-86175274D01*
X194954722Y-86185912D01*
X194976968Y-86193763D01*
X194991792Y-86198319D01*
X194997030Y-86199275D01*
X195000211Y-86199097D01*
X195003925Y-86198307D01*
X195008728Y-86196537D01*
X195015176Y-86193420D01*
X195023827Y-86188588D01*
X195035238Y-86181674D01*
X195049964Y-86172311D01*
X195068563Y-86160132D01*
X195091592Y-86144770D01*
X195119608Y-86125856D01*
X195153166Y-86103025D01*
X195192824Y-86075908D01*
X195239139Y-86044139D01*
X195292666Y-86007350D01*
X195353964Y-85965173D01*
X195401252Y-85932621D01*
X195434360Y-85910076D01*
X195465072Y-85889634D01*
X195492203Y-85872048D01*
X195514566Y-85858071D01*
X195530975Y-85848454D01*
X195540244Y-85843950D01*
X195541410Y-85843708D01*
X195547591Y-85847225D01*
X195560484Y-85857831D01*
X195580178Y-85875610D01*
X195606760Y-85900644D01*
X195640315Y-85933016D01*
X195680931Y-85972808D01*
X195728695Y-86020104D01*
X195774138Y-86065424D01*
X195821303Y-86112651D01*
X195861454Y-86153009D01*
X195895112Y-86187057D01*
X195922802Y-86215353D01*
X195945047Y-86238458D01*
X195962371Y-86256929D01*
X195975298Y-86271325D01*
X195984349Y-86282206D01*
X195990050Y-86290130D01*
X195992924Y-86295657D01*
X195993494Y-86299345D01*
X195993455Y-86299581D01*
X195990086Y-86306131D01*
X195981238Y-86320569D01*
X195967455Y-86342079D01*
X195949276Y-86369844D01*
X195927244Y-86403046D01*
X195901900Y-86440869D01*
X195873785Y-86482496D01*
X195843441Y-86527110D01*
X195818111Y-86564132D01*
X195779461Y-86620599D01*
X195746540Y-86668985D01*
X195718982Y-86709860D01*
X195696418Y-86743793D01*
X195678482Y-86771354D01*
X195664806Y-86793113D01*
X195655023Y-86809638D01*
X195648765Y-86821501D01*
X195645664Y-86829270D01*
X195645167Y-86832258D01*
X195647243Y-86841286D01*
X195653125Y-86858562D01*
X195662290Y-86882876D01*
X195674217Y-86913022D01*
X195688384Y-86947791D01*
X195704270Y-86985975D01*
X195721352Y-87026366D01*
X195739110Y-87067756D01*
X195757022Y-87108937D01*
X195774565Y-87148701D01*
X195791219Y-87185840D01*
X195806461Y-87219145D01*
X195819771Y-87247409D01*
X195830626Y-87269424D01*
X195838504Y-87283981D01*
X195842734Y-87289789D01*
X195850071Y-87292182D01*
X195866781Y-87296253D01*
X195891821Y-87301788D01*
X195924152Y-87308573D01*
X195962733Y-87316396D01*
X196006523Y-87325041D01*
X196054480Y-87334296D01*
X196105565Y-87343946D01*
X196116125Y-87345916D01*
X196168744Y-87355715D01*
X196219305Y-87365138D01*
X196266636Y-87373966D01*
X196309563Y-87381981D01*
X196346912Y-87388964D01*
X196377511Y-87394694D01*
X196400187Y-87398953D01*
X196413766Y-87401521D01*
X196414694Y-87401699D01*
X196438159Y-87407527D01*
X196453672Y-87414273D01*
X196458350Y-87418332D01*
X196459882Y-87422268D01*
X196461187Y-87430043D01*
X196462281Y-87442385D01*
X196463179Y-87460024D01*
X196463899Y-87483686D01*
X196464455Y-87514101D01*
X196464865Y-87551995D01*
X196465143Y-87598097D01*
X196465307Y-87653136D01*
X196465372Y-87717838D01*
X196465375Y-87736490D01*
X196465375Y-87736490D01*
D11*
X190600000Y-103000000D02*
X191000000Y-103000000D01*
X191000000Y-103000000D02*
X191000000Y-102000000D01*
X178000000Y-102000000D02*
X178000000Y-103000000D01*
X178000000Y-103000000D02*
X178400000Y-103000000D01*
D13*
X199790476Y-92761904D02*
X199790476Y-93409523D01*
X199828571Y-93485714D01*
X199866666Y-93523809D01*
X199942857Y-93561904D01*
X200095238Y-93561904D01*
X200171428Y-93523809D01*
X200209523Y-93485714D01*
X200247619Y-93409523D01*
X200247619Y-92761904D01*
X201047619Y-93561904D02*
X200590476Y-93561904D01*
X200819047Y-93561904D02*
X200819047Y-92761904D01*
X200742857Y-92876190D01*
X200666666Y-92952380D01*
X200590476Y-92990476D01*
X175623809Y-83709523D02*
X175661904Y-83595238D01*
X175661904Y-83404761D01*
X175623809Y-83328571D01*
X175585714Y-83290476D01*
X175509523Y-83252380D01*
X175433333Y-83252380D01*
X175357142Y-83290476D01*
X175319047Y-83328571D01*
X175280952Y-83404761D01*
X175242857Y-83557142D01*
X175204761Y-83633333D01*
X175166666Y-83671428D01*
X175090476Y-83709523D01*
X175014285Y-83709523D01*
X174938095Y-83671428D01*
X174900000Y-83633333D01*
X174861904Y-83557142D01*
X174861904Y-83366666D01*
X174900000Y-83252380D01*
X175661904Y-82490476D02*
X175661904Y-82947619D01*
X175661904Y-82719047D02*
X174861904Y-82719047D01*
X174976190Y-82795238D01*
X175052380Y-82871428D01*
X175090476Y-82947619D01*
X210023809Y-102009523D02*
X210061904Y-101895238D01*
X210061904Y-101704761D01*
X210023809Y-101628571D01*
X209985714Y-101590476D01*
X209909523Y-101552380D01*
X209833333Y-101552380D01*
X209757142Y-101590476D01*
X209719047Y-101628571D01*
X209680952Y-101704761D01*
X209642857Y-101857142D01*
X209604761Y-101933333D01*
X209566666Y-101971428D01*
X209490476Y-102009523D01*
X209414285Y-102009523D01*
X209338095Y-101971428D01*
X209300000Y-101933333D01*
X209261904Y-101857142D01*
X209261904Y-101666666D01*
X209300000Y-101552380D01*
X209261904Y-101285714D02*
X209261904Y-100790476D01*
X209566666Y-101057142D01*
X209566666Y-100942857D01*
X209604761Y-100866666D01*
X209642857Y-100828571D01*
X209719047Y-100790476D01*
X209909523Y-100790476D01*
X209985714Y-100828571D01*
X210023809Y-100866666D01*
X210061904Y-100942857D01*
X210061904Y-101171428D01*
X210023809Y-101247619D01*
X209985714Y-101285714D01*
X175623809Y-102009523D02*
X175661904Y-101895238D01*
X175661904Y-101704761D01*
X175623809Y-101628571D01*
X175585714Y-101590476D01*
X175509523Y-101552380D01*
X175433333Y-101552380D01*
X175357142Y-101590476D01*
X175319047Y-101628571D01*
X175280952Y-101704761D01*
X175242857Y-101857142D01*
X175204761Y-101933333D01*
X175166666Y-101971428D01*
X175090476Y-102009523D01*
X175014285Y-102009523D01*
X174938095Y-101971428D01*
X174900000Y-101933333D01*
X174861904Y-101857142D01*
X174861904Y-101666666D01*
X174900000Y-101552380D01*
X174938095Y-101247619D02*
X174900000Y-101209523D01*
X174861904Y-101133333D01*
X174861904Y-100942857D01*
X174900000Y-100866666D01*
X174938095Y-100828571D01*
X175014285Y-100790476D01*
X175090476Y-100790476D01*
X175204761Y-100828571D01*
X175661904Y-101285714D01*
X175661904Y-100790476D01*
X210023809Y-83709523D02*
X210061904Y-83595238D01*
X210061904Y-83404761D01*
X210023809Y-83328571D01*
X209985714Y-83290476D01*
X209909523Y-83252380D01*
X209833333Y-83252380D01*
X209757142Y-83290476D01*
X209719047Y-83328571D01*
X209680952Y-83404761D01*
X209642857Y-83557142D01*
X209604761Y-83633333D01*
X209566666Y-83671428D01*
X209490476Y-83709523D01*
X209414285Y-83709523D01*
X209338095Y-83671428D01*
X209300000Y-83633333D01*
X209261904Y-83557142D01*
X209261904Y-83366666D01*
X209300000Y-83252380D01*
X209528571Y-82566666D02*
X210061904Y-82566666D01*
X209223809Y-82757142D02*
X209795238Y-82947619D01*
X209795238Y-82452380D01*
M02*
