G04 #@! TF.FileFunction,Soldermask,Top*
%FSLAX46Y46*%
G04 Gerber Fmt 4.6, Leading zero omitted, Abs format (unit mm)*
G04 Created by KiCad (PCBNEW (2016-04-05 BZR 6665, Git e1b308b)-product) date 04.05.2016 13:46:03*
%MOMM*%
G01*
G04 APERTURE LIST*
%ADD10C,0.100000*%
G04 APERTURE END LIST*
D10*
G36*
X200300000Y-103750000D02*
X198500000Y-103750000D01*
X198500000Y-102450000D01*
X200300000Y-102450000D01*
X200300000Y-103750000D01*
X200300000Y-103750000D01*
G37*
G36*
X203000000Y-100700000D02*
X202850000Y-100700000D01*
X202840245Y-100700961D01*
X202830866Y-100703806D01*
X202822221Y-100708427D01*
X202814645Y-100714645D01*
X202808427Y-100722221D01*
X202803806Y-100730866D01*
X202800961Y-100740245D01*
X202800000Y-100750000D01*
X202800000Y-100850000D01*
X202800961Y-100859755D01*
X202803806Y-100869134D01*
X202808427Y-100877779D01*
X202814645Y-100885355D01*
X202822221Y-100891573D01*
X202830866Y-100896194D01*
X202840245Y-100899039D01*
X202850000Y-100900000D01*
X203600000Y-100900000D01*
X203600000Y-102600000D01*
X202850000Y-102600000D01*
X202840245Y-102600961D01*
X202830866Y-102603806D01*
X202822221Y-102608427D01*
X202814645Y-102614645D01*
X202808427Y-102622221D01*
X202803806Y-102630866D01*
X202800961Y-102640245D01*
X202800000Y-102650000D01*
X202800000Y-103750000D01*
X201000000Y-103750000D01*
X201000000Y-102450000D01*
X202750000Y-102450000D01*
X202759755Y-102449039D01*
X202769134Y-102446194D01*
X202777779Y-102441573D01*
X202785355Y-102435355D01*
X202791573Y-102427779D01*
X202796194Y-102419134D01*
X202799039Y-102409755D01*
X202800000Y-102400000D01*
X202800000Y-102000000D01*
X202799039Y-101990245D01*
X202796194Y-101980866D01*
X202791573Y-101972221D01*
X202785355Y-101964645D01*
X202777779Y-101958427D01*
X202769134Y-101953806D01*
X202759755Y-101950961D01*
X202750000Y-101950000D01*
X201000000Y-101950000D01*
X201000000Y-100650000D01*
X201350000Y-100650000D01*
X201359755Y-100649039D01*
X201369134Y-100646194D01*
X201377779Y-100641573D01*
X201385355Y-100635355D01*
X201391573Y-100627779D01*
X201396194Y-100619134D01*
X201399039Y-100609755D01*
X201400000Y-100600000D01*
X201400000Y-99000000D01*
X203000000Y-99000000D01*
X203000000Y-100700000D01*
X203000000Y-100700000D01*
G37*
G36*
X176300000Y-103750000D02*
X174300000Y-103750000D01*
X174300000Y-102450000D01*
X176300000Y-102450000D01*
X176300000Y-103750000D01*
X176300000Y-103750000D01*
G37*
G36*
X210700000Y-103750000D02*
X208700000Y-103750000D01*
X208700000Y-102450000D01*
X210700000Y-102450000D01*
X210700000Y-103750000D01*
X210700000Y-103750000D01*
G37*
G36*
X206050961Y-101159755D02*
X206053806Y-101169134D01*
X206058427Y-101177779D01*
X206064645Y-101185355D01*
X206072221Y-101191573D01*
X206080866Y-101196194D01*
X206090245Y-101199039D01*
X206100000Y-101200000D01*
X206900000Y-101200000D01*
X206900000Y-102900000D01*
X206100000Y-102900000D01*
X206090245Y-102900961D01*
X206080866Y-102903806D01*
X206072221Y-102908427D01*
X206064645Y-102914645D01*
X206058427Y-102922221D01*
X206053806Y-102930866D01*
X206050961Y-102940245D01*
X206050000Y-102950000D01*
X206050000Y-103550000D01*
X203750000Y-103550000D01*
X203750000Y-102650000D01*
X206050000Y-102650000D01*
X206059755Y-102649039D01*
X206069134Y-102646194D01*
X206077779Y-102641573D01*
X206085355Y-102635355D01*
X206091573Y-102627779D01*
X206096194Y-102619134D01*
X206099039Y-102609755D01*
X206100000Y-102600000D01*
X206100000Y-102100000D01*
X206099039Y-102090245D01*
X206096194Y-102080866D01*
X206091573Y-102072221D01*
X206085355Y-102064645D01*
X206077779Y-102058427D01*
X206069134Y-102053806D01*
X206059755Y-102050961D01*
X206050000Y-102050000D01*
X203750000Y-102050000D01*
X203750000Y-101150000D01*
X206050000Y-101150000D01*
X206050961Y-101159755D01*
X206050961Y-101159755D01*
G37*
G36*
X179050000Y-101900000D02*
X179050961Y-101909755D01*
X179053806Y-101919134D01*
X179058427Y-101927779D01*
X179064645Y-101935355D01*
X179072221Y-101941573D01*
X179080866Y-101946194D01*
X179090245Y-101949039D01*
X179100000Y-101950000D01*
X179920000Y-101950000D01*
X179920000Y-103450000D01*
X178620000Y-103450000D01*
X178620000Y-101900000D01*
X178619039Y-101890245D01*
X178616194Y-101880866D01*
X178611573Y-101872221D01*
X178605355Y-101864645D01*
X178597779Y-101858427D01*
X178589134Y-101853806D01*
X178579755Y-101850961D01*
X178570000Y-101850000D01*
X177550000Y-101850000D01*
X177550000Y-100550000D01*
X179050000Y-100550000D01*
X179050000Y-101900000D01*
X179050000Y-101900000D01*
G37*
G36*
X191450000Y-101850000D02*
X190470000Y-101850000D01*
X190460245Y-101850961D01*
X190450866Y-101853806D01*
X190442221Y-101858427D01*
X190434645Y-101864645D01*
X190428427Y-101872221D01*
X190423806Y-101880866D01*
X190420961Y-101890245D01*
X190420000Y-101900000D01*
X190420000Y-103450000D01*
X189120000Y-103450000D01*
X189120000Y-101950000D01*
X189900000Y-101950000D01*
X189909755Y-101949039D01*
X189919134Y-101946194D01*
X189927779Y-101941573D01*
X189935355Y-101935355D01*
X189941573Y-101927779D01*
X189946194Y-101919134D01*
X189949039Y-101909755D01*
X189950000Y-101900000D01*
X189950000Y-100550000D01*
X191450000Y-100550000D01*
X191450000Y-101850000D01*
X191450000Y-101850000D01*
G37*
G36*
X197900000Y-103450000D02*
X195800000Y-103450000D01*
X195800000Y-102150000D01*
X197900000Y-102150000D01*
X197900000Y-103450000D01*
X197900000Y-103450000D01*
G37*
G36*
X195600000Y-103400000D02*
X194800000Y-103400000D01*
X194800000Y-101700000D01*
X195600000Y-101700000D01*
X195600000Y-103400000D01*
X195600000Y-103400000D01*
G37*
G36*
X193892500Y-101420000D02*
X193893461Y-101429755D01*
X193896306Y-101439134D01*
X193900927Y-101447779D01*
X193907145Y-101455355D01*
X193914721Y-101461573D01*
X193923366Y-101466194D01*
X193932745Y-101469039D01*
X193942500Y-101470000D01*
X194600000Y-101470000D01*
X194600000Y-103370000D01*
X193889750Y-103370000D01*
X193885355Y-103364645D01*
X193877779Y-103358427D01*
X193869134Y-103353806D01*
X193859755Y-103350961D01*
X193850000Y-103350000D01*
X192800000Y-103350000D01*
X192790245Y-103350961D01*
X192780866Y-103353806D01*
X192772221Y-103358427D01*
X192764645Y-103364645D01*
X192760250Y-103370000D01*
X192050000Y-103370000D01*
X192050000Y-101995000D01*
X192750000Y-101995000D01*
X192750000Y-102000000D01*
X192750961Y-102009755D01*
X192753806Y-102019134D01*
X192758427Y-102027779D01*
X192764645Y-102035355D01*
X192772221Y-102041573D01*
X192780866Y-102046194D01*
X192790245Y-102049039D01*
X192800000Y-102050000D01*
X193850000Y-102050000D01*
X193859755Y-102049039D01*
X193869134Y-102046194D01*
X193877779Y-102041573D01*
X193885355Y-102035355D01*
X193891573Y-102027779D01*
X193896194Y-102019134D01*
X193899039Y-102009755D01*
X193900000Y-102000000D01*
X193900000Y-101995000D01*
X193899039Y-101985245D01*
X193896194Y-101975866D01*
X193891573Y-101967221D01*
X193885355Y-101959645D01*
X193877779Y-101953427D01*
X193869134Y-101948806D01*
X193859755Y-101945961D01*
X193850000Y-101945000D01*
X192800000Y-101945000D01*
X192790245Y-101945961D01*
X192780866Y-101948806D01*
X192772221Y-101953427D01*
X192764645Y-101959645D01*
X192758427Y-101967221D01*
X192753806Y-101975866D01*
X192750961Y-101985245D01*
X192750000Y-101995000D01*
X192050000Y-101995000D01*
X192050000Y-101470000D01*
X192757500Y-101470000D01*
X192767255Y-101469039D01*
X192776634Y-101466194D01*
X192785279Y-101461573D01*
X192792855Y-101455355D01*
X192799073Y-101447779D01*
X192803694Y-101439134D01*
X192806539Y-101429755D01*
X192807500Y-101420000D01*
X192807500Y-101415000D01*
X193892500Y-101415000D01*
X193892500Y-101420000D01*
X193892500Y-101420000D01*
G37*
G36*
X200300000Y-101950000D02*
X198500000Y-101950000D01*
X198500000Y-100650000D01*
X198550000Y-100650000D01*
X198559755Y-100649039D01*
X198569134Y-100646194D01*
X198577779Y-100641573D01*
X198585355Y-100635355D01*
X198591573Y-100627779D01*
X198596194Y-100619134D01*
X198599039Y-100609755D01*
X198600000Y-100600000D01*
X198600000Y-99800000D01*
X200300000Y-99800000D01*
X200300000Y-101950000D01*
X200300000Y-101950000D01*
G37*
G36*
X195600000Y-101500000D02*
X194800000Y-101500000D01*
X194800000Y-99800000D01*
X195600000Y-99800000D01*
X195600000Y-101500000D01*
X195600000Y-101500000D01*
G37*
G36*
X194600000Y-101200000D02*
X192900000Y-101200000D01*
X192900000Y-100400000D01*
X194600000Y-100400000D01*
X194600000Y-101200000D01*
X194600000Y-101200000D01*
G37*
G36*
X197900000Y-101050000D02*
X195800000Y-101050000D01*
X195800000Y-99750000D01*
X197900000Y-99750000D01*
X197900000Y-101050000D01*
X197900000Y-101050000D01*
G37*
G36*
X210700000Y-100350000D02*
X208700000Y-100350000D01*
X208700000Y-99050000D01*
X210700000Y-99050000D01*
X210700000Y-100350000D01*
X210700000Y-100350000D01*
G37*
G36*
X176300000Y-100350000D02*
X174300000Y-100350000D01*
X174300000Y-99050000D01*
X176300000Y-99050000D01*
X176300000Y-100350000D01*
X176300000Y-100350000D01*
G37*
G36*
X191450000Y-100350000D02*
X189950000Y-100350000D01*
X189950000Y-99050000D01*
X191450000Y-99050000D01*
X191450000Y-100350000D01*
X191450000Y-100350000D01*
G37*
G36*
X179050000Y-100350000D02*
X177550000Y-100350000D01*
X177550000Y-99050000D01*
X179050000Y-99050000D01*
X179050000Y-100350000D01*
X179050000Y-100350000D01*
G37*
G36*
X204850000Y-99850000D02*
X203750000Y-99850000D01*
X203750000Y-98950000D01*
X204850000Y-98950000D01*
X204850000Y-99850000D01*
X204850000Y-99850000D01*
G37*
G36*
X175550000Y-97950000D02*
X175550961Y-97959755D01*
X175553806Y-97969134D01*
X175558427Y-97977779D01*
X175564645Y-97985355D01*
X175572221Y-97991573D01*
X175580866Y-97996194D01*
X175590245Y-97999039D01*
X175600000Y-98000000D01*
X176500000Y-98000000D01*
X176509755Y-97999039D01*
X176519134Y-97996194D01*
X176527779Y-97991573D01*
X176535355Y-97985355D01*
X176541573Y-97977779D01*
X176546194Y-97969134D01*
X176549039Y-97959755D01*
X176550000Y-97950000D01*
X176550000Y-96700000D01*
X177450000Y-96700000D01*
X177450000Y-97500000D01*
X177450961Y-97509755D01*
X177453806Y-97519134D01*
X177458427Y-97527779D01*
X177464645Y-97535355D01*
X177472221Y-97541573D01*
X177480866Y-97546194D01*
X177490245Y-97549039D01*
X177500000Y-97550000D01*
X179050000Y-97550000D01*
X179050000Y-98850000D01*
X177550000Y-98850000D01*
X177550000Y-97950000D01*
X177549039Y-97940245D01*
X177546194Y-97930866D01*
X177541573Y-97922221D01*
X177535355Y-97914645D01*
X177527779Y-97908427D01*
X177519134Y-97903806D01*
X177509755Y-97900961D01*
X177500000Y-97900000D01*
X177350000Y-97900000D01*
X177340245Y-97900961D01*
X177330866Y-97903806D01*
X177322221Y-97908427D01*
X177314645Y-97914645D01*
X177308427Y-97922221D01*
X177303806Y-97930866D01*
X177300961Y-97940245D01*
X177300000Y-97950000D01*
X177300000Y-99700000D01*
X176500000Y-99700000D01*
X176500000Y-98850000D01*
X176499039Y-98840245D01*
X176496194Y-98830866D01*
X176491573Y-98822221D01*
X176485355Y-98814645D01*
X176477779Y-98808427D01*
X176469134Y-98803806D01*
X176459755Y-98800961D01*
X176450000Y-98800000D01*
X174700000Y-98800000D01*
X174700000Y-97950000D01*
X174699039Y-97940245D01*
X174696194Y-97930866D01*
X174691573Y-97922221D01*
X174685355Y-97914645D01*
X174677779Y-97908427D01*
X174669134Y-97903806D01*
X174659755Y-97900961D01*
X174650000Y-97900000D01*
X174650000Y-96700000D01*
X175550000Y-96700000D01*
X175550000Y-97950000D01*
X175550000Y-97950000D01*
G37*
G36*
X192650000Y-97950000D02*
X191500000Y-97950000D01*
X191490245Y-97950961D01*
X191480866Y-97953806D01*
X191472221Y-97958427D01*
X191464645Y-97964645D01*
X191458427Y-97972221D01*
X191453806Y-97980866D01*
X191450961Y-97990245D01*
X191450000Y-98000000D01*
X191450000Y-98850000D01*
X189950000Y-98850000D01*
X189950000Y-97550000D01*
X191500000Y-97550000D01*
X191509755Y-97549039D01*
X191519134Y-97546194D01*
X191527779Y-97541573D01*
X191535355Y-97535355D01*
X191541573Y-97527779D01*
X191546194Y-97519134D01*
X191549039Y-97509755D01*
X191550000Y-97500000D01*
X191550000Y-97050000D01*
X192650000Y-97050000D01*
X192650000Y-97950000D01*
X192650000Y-97950000D01*
G37*
G36*
X203500000Y-98500000D02*
X197400000Y-98500000D01*
X197400000Y-97200000D01*
X203500000Y-97200000D01*
X203500000Y-98500000D01*
X203500000Y-98500000D01*
G37*
G36*
X204850000Y-98350000D02*
X203750000Y-98350000D01*
X203750000Y-97450000D01*
X204850000Y-97450000D01*
X204850000Y-98350000D01*
X204850000Y-98350000D01*
G37*
G36*
X196250000Y-98050000D02*
X195350000Y-98050000D01*
X195350000Y-96950000D01*
X196250000Y-96950000D01*
X196250000Y-98050000D01*
X196250000Y-98050000D01*
G37*
G36*
X194750000Y-98050000D02*
X193850000Y-98050000D01*
X193850000Y-96950000D01*
X194750000Y-96950000D01*
X194750000Y-98050000D01*
X194750000Y-98050000D01*
G37*
G36*
X192650000Y-96450000D02*
X191550000Y-96450000D01*
X191550000Y-94550000D01*
X192650000Y-94550000D01*
X192650000Y-96450000D01*
X192650000Y-96450000D01*
G37*
G36*
X205800000Y-90200000D02*
X205650000Y-90200000D01*
X205640245Y-90200961D01*
X205630866Y-90203806D01*
X205622221Y-90208427D01*
X205614645Y-90214645D01*
X205608427Y-90222221D01*
X205603806Y-90230866D01*
X205600961Y-90240245D01*
X205600000Y-90250000D01*
X205600000Y-96400000D01*
X204300000Y-96400000D01*
X204300000Y-90250000D01*
X204299039Y-90240245D01*
X204296194Y-90230866D01*
X204291573Y-90222221D01*
X204285355Y-90214645D01*
X204277779Y-90208427D01*
X204269134Y-90203806D01*
X204259755Y-90200961D01*
X204250000Y-90200000D01*
X204100000Y-90200000D01*
X204100000Y-89400000D01*
X205800000Y-89400000D01*
X205800000Y-90200000D01*
X205800000Y-90200000D01*
G37*
G36*
X196600000Y-96400000D02*
X195300000Y-96400000D01*
X195300000Y-90300000D01*
X196600000Y-90300000D01*
X196600000Y-96400000D01*
X196600000Y-96400000D01*
G37*
G36*
X193700000Y-96200000D02*
X192900000Y-96200000D01*
X192900000Y-94500000D01*
X193700000Y-94500000D01*
X193700000Y-96200000D01*
X193700000Y-96200000D01*
G37*
G36*
X177450000Y-95600000D02*
X174650000Y-95600000D01*
X174650000Y-94400000D01*
X177450000Y-94400000D01*
X177450000Y-95600000D01*
X177450000Y-95600000D01*
G37*
G36*
X209050000Y-92000000D02*
X209050961Y-92009755D01*
X209053806Y-92019134D01*
X209058427Y-92027779D01*
X209064645Y-92035355D01*
X209072221Y-92041573D01*
X209080866Y-92046194D01*
X209090245Y-92049039D01*
X209100000Y-92050000D01*
X209650000Y-92050000D01*
X209650000Y-93750000D01*
X209100000Y-93750000D01*
X209090245Y-93750961D01*
X209080866Y-93753806D01*
X209072221Y-93758427D01*
X209064645Y-93764645D01*
X209058427Y-93772221D01*
X209053806Y-93780866D01*
X209050961Y-93790245D01*
X209050000Y-93800000D01*
X209050000Y-94150000D01*
X209050961Y-94159755D01*
X209053806Y-94169134D01*
X209058427Y-94177779D01*
X209064645Y-94185355D01*
X209072221Y-94191573D01*
X209080866Y-94196194D01*
X209090245Y-94199039D01*
X209100000Y-94200000D01*
X209900000Y-94200000D01*
X209900000Y-95000000D01*
X208200000Y-95000000D01*
X208200000Y-94200000D01*
X208199039Y-94190245D01*
X208196194Y-94180866D01*
X208191573Y-94172221D01*
X208185355Y-94164645D01*
X208177779Y-94158427D01*
X208169134Y-94153806D01*
X208159755Y-94150961D01*
X208150000Y-94150000D01*
X207750000Y-94150000D01*
X207750000Y-93800000D01*
X207749039Y-93790245D01*
X207746194Y-93780866D01*
X207741573Y-93772221D01*
X207735355Y-93764645D01*
X207727779Y-93758427D01*
X207719134Y-93753806D01*
X207709755Y-93750961D01*
X207700000Y-93750000D01*
X207150000Y-93750000D01*
X207150000Y-92400000D01*
X207850000Y-92400000D01*
X207850000Y-93400000D01*
X207850961Y-93409755D01*
X207853806Y-93419134D01*
X207858427Y-93427779D01*
X207864645Y-93435355D01*
X207872221Y-93441573D01*
X207880866Y-93446194D01*
X207890245Y-93449039D01*
X207900000Y-93450000D01*
X208900000Y-93450000D01*
X208909755Y-93449039D01*
X208919134Y-93446194D01*
X208927779Y-93441573D01*
X208935355Y-93435355D01*
X208941573Y-93427779D01*
X208946194Y-93419134D01*
X208949039Y-93409755D01*
X208950000Y-93400000D01*
X208950000Y-92400000D01*
X208949039Y-92390245D01*
X208946194Y-92380866D01*
X208941573Y-92372221D01*
X208935355Y-92364645D01*
X208927779Y-92358427D01*
X208919134Y-92353806D01*
X208909755Y-92350961D01*
X208900000Y-92350000D01*
X207900000Y-92350000D01*
X207890245Y-92350961D01*
X207880866Y-92353806D01*
X207872221Y-92358427D01*
X207864645Y-92364645D01*
X207858427Y-92372221D01*
X207853806Y-92380866D01*
X207850961Y-92390245D01*
X207850000Y-92400000D01*
X207150000Y-92400000D01*
X207150000Y-92050000D01*
X207700000Y-92050000D01*
X207709755Y-92049039D01*
X207719134Y-92046194D01*
X207727779Y-92041573D01*
X207735355Y-92035355D01*
X207741573Y-92027779D01*
X207746194Y-92019134D01*
X207749039Y-92009755D01*
X207750000Y-92000000D01*
X207750000Y-91650000D01*
X209050000Y-91650000D01*
X209050000Y-92000000D01*
X209050000Y-92000000D01*
G37*
G36*
X192650000Y-93950000D02*
X191550000Y-93950000D01*
X191550000Y-93050000D01*
X192650000Y-93050000D01*
X192650000Y-93950000D01*
X192650000Y-93950000D01*
G37*
G36*
X177675000Y-92975000D02*
X176875000Y-92975000D01*
X176875000Y-91275000D01*
X177675000Y-91275000D01*
X177675000Y-92975000D01*
X177675000Y-92975000D01*
G37*
G36*
X176630000Y-91127500D02*
X176630961Y-91137255D01*
X176633806Y-91146634D01*
X176638427Y-91155279D01*
X176644645Y-91162855D01*
X176652221Y-91169073D01*
X176660866Y-91173694D01*
X176670245Y-91176539D01*
X176680000Y-91177500D01*
X176685000Y-91177500D01*
X176685000Y-92262500D01*
X176680000Y-92262500D01*
X176670245Y-92263461D01*
X176660866Y-92266306D01*
X176652221Y-92270927D01*
X176644645Y-92277145D01*
X176638427Y-92284721D01*
X176633806Y-92293366D01*
X176630961Y-92302745D01*
X176630000Y-92312500D01*
X176630000Y-92970000D01*
X174730000Y-92970000D01*
X174730000Y-92259750D01*
X174735355Y-92255355D01*
X174741573Y-92247779D01*
X174746194Y-92239134D01*
X174749039Y-92229755D01*
X174750000Y-92220000D01*
X174750000Y-91170000D01*
X176050000Y-91170000D01*
X176050000Y-92220000D01*
X176050961Y-92229755D01*
X176053806Y-92239134D01*
X176058427Y-92247779D01*
X176064645Y-92255355D01*
X176072221Y-92261573D01*
X176080866Y-92266194D01*
X176090245Y-92269039D01*
X176100000Y-92270000D01*
X176105000Y-92270000D01*
X176114755Y-92269039D01*
X176124134Y-92266194D01*
X176132779Y-92261573D01*
X176140355Y-92255355D01*
X176146573Y-92247779D01*
X176151194Y-92239134D01*
X176154039Y-92229755D01*
X176155000Y-92220000D01*
X176155000Y-91170000D01*
X176154039Y-91160245D01*
X176151194Y-91150866D01*
X176146573Y-91142221D01*
X176140355Y-91134645D01*
X176132779Y-91128427D01*
X176124134Y-91123806D01*
X176114755Y-91120961D01*
X176105000Y-91120000D01*
X176100000Y-91120000D01*
X176090245Y-91120961D01*
X176080866Y-91123806D01*
X176072221Y-91128427D01*
X176064645Y-91134645D01*
X176058427Y-91142221D01*
X176053806Y-91150866D01*
X176050961Y-91160245D01*
X176050000Y-91170000D01*
X174750000Y-91170000D01*
X174749039Y-91160245D01*
X174746194Y-91150866D01*
X174741573Y-91142221D01*
X174735355Y-91134645D01*
X174730000Y-91130250D01*
X174730000Y-90420000D01*
X176630000Y-90420000D01*
X176630000Y-91127500D01*
X176630000Y-91127500D01*
G37*
G36*
X193330000Y-90627500D02*
X193330961Y-90637255D01*
X193333806Y-90646634D01*
X193338427Y-90655279D01*
X193344645Y-90662855D01*
X193352221Y-90669073D01*
X193360866Y-90673694D01*
X193370245Y-90676539D01*
X193380000Y-90677500D01*
X193385000Y-90677500D01*
X193385000Y-91575000D01*
X193385961Y-91584755D01*
X193388806Y-91594134D01*
X193393427Y-91602779D01*
X193399645Y-91610355D01*
X193407221Y-91616573D01*
X193415866Y-91621194D01*
X193425245Y-91624039D01*
X193435000Y-91625000D01*
X195025000Y-91625000D01*
X195025000Y-92425000D01*
X193380000Y-92425000D01*
X193370245Y-92425961D01*
X193360866Y-92428806D01*
X193352221Y-92433427D01*
X193344645Y-92439645D01*
X193338427Y-92447221D01*
X193333806Y-92455866D01*
X193330961Y-92465245D01*
X193330493Y-92470000D01*
X191430000Y-92470000D01*
X191430000Y-91759750D01*
X191435355Y-91755355D01*
X191441573Y-91747779D01*
X191446194Y-91739134D01*
X191449039Y-91729755D01*
X191450000Y-91720000D01*
X191450000Y-90670000D01*
X192750000Y-90670000D01*
X192750000Y-91720000D01*
X192750961Y-91729755D01*
X192753806Y-91739134D01*
X192758427Y-91747779D01*
X192764645Y-91755355D01*
X192772221Y-91761573D01*
X192780866Y-91766194D01*
X192790245Y-91769039D01*
X192800000Y-91770000D01*
X192805000Y-91770000D01*
X192814755Y-91769039D01*
X192824134Y-91766194D01*
X192832779Y-91761573D01*
X192840355Y-91755355D01*
X192846573Y-91747779D01*
X192851194Y-91739134D01*
X192854039Y-91729755D01*
X192855000Y-91720000D01*
X192855000Y-90670000D01*
X192854039Y-90660245D01*
X192851194Y-90650866D01*
X192846573Y-90642221D01*
X192840355Y-90634645D01*
X192832779Y-90628427D01*
X192824134Y-90623806D01*
X192814755Y-90620961D01*
X192805000Y-90620000D01*
X192800000Y-90620000D01*
X192790245Y-90620961D01*
X192780866Y-90623806D01*
X192772221Y-90628427D01*
X192764645Y-90634645D01*
X192758427Y-90642221D01*
X192753806Y-90650866D01*
X192750961Y-90660245D01*
X192750000Y-90670000D01*
X191450000Y-90670000D01*
X191449039Y-90660245D01*
X191446194Y-90650866D01*
X191441573Y-90642221D01*
X191435355Y-90634645D01*
X191430000Y-90630250D01*
X191430000Y-89920000D01*
X193330000Y-89920000D01*
X193330000Y-90627500D01*
X193330000Y-90627500D01*
G37*
G36*
X209650000Y-91050000D02*
X208850000Y-91050000D01*
X208850000Y-90150000D01*
X209650000Y-90150000D01*
X209650000Y-91050000D01*
X209650000Y-91050000D01*
G37*
G36*
X206800000Y-91050000D02*
X206000000Y-91050000D01*
X206000000Y-90150000D01*
X206800000Y-90150000D01*
X206800000Y-91050000D01*
X206800000Y-91050000D01*
G37*
G36*
X177060387Y-90186327D02*
X174460387Y-90186327D01*
X174460387Y-88486327D01*
X177060387Y-88486327D01*
X177060387Y-90186327D01*
X177060387Y-90186327D01*
G37*
G36*
X206800000Y-89550000D02*
X206000000Y-89550000D01*
X206000000Y-88650000D01*
X206800000Y-88650000D01*
X206800000Y-89550000D01*
X206800000Y-89550000D01*
G37*
G36*
X209650000Y-89550000D02*
X208850000Y-89550000D01*
X208850000Y-88650000D01*
X209650000Y-88650000D01*
X209650000Y-89550000D01*
X209650000Y-89550000D01*
G37*
G36*
X197300000Y-88150000D02*
X197300961Y-88159755D01*
X197303806Y-88169134D01*
X197308427Y-88177779D01*
X197314645Y-88185355D01*
X197322221Y-88191573D01*
X197330866Y-88196194D01*
X197340245Y-88199039D01*
X197350000Y-88200000D01*
X203500000Y-88200000D01*
X203500000Y-89500000D01*
X197400000Y-89500000D01*
X197400000Y-89450000D01*
X197399039Y-89440245D01*
X197396194Y-89430866D01*
X197391573Y-89422221D01*
X197385355Y-89414645D01*
X197377779Y-89408427D01*
X197369134Y-89403806D01*
X197359755Y-89400961D01*
X197350000Y-89400000D01*
X196500000Y-89400000D01*
X196500000Y-87700000D01*
X197300000Y-87700000D01*
X197300000Y-88150000D01*
X197300000Y-88150000D01*
G37*
G36*
X176630387Y-86526577D02*
X176625032Y-86530972D01*
X176618814Y-86538548D01*
X176614193Y-86547193D01*
X176611348Y-86556572D01*
X176610387Y-86566327D01*
X176610387Y-87616327D01*
X176611348Y-87626082D01*
X176614193Y-87635461D01*
X176618814Y-87644106D01*
X176625032Y-87651682D01*
X176630387Y-87656077D01*
X176630387Y-88366327D01*
X174730387Y-88366327D01*
X174730387Y-87658827D01*
X174729426Y-87649072D01*
X174726581Y-87639693D01*
X174721960Y-87631048D01*
X174715742Y-87623472D01*
X174708166Y-87617254D01*
X174699521Y-87612633D01*
X174690142Y-87609788D01*
X174680387Y-87608827D01*
X174675387Y-87608827D01*
X174675387Y-86566327D01*
X175205387Y-86566327D01*
X175205387Y-87616327D01*
X175206348Y-87626082D01*
X175209193Y-87635461D01*
X175213814Y-87644106D01*
X175220032Y-87651682D01*
X175227608Y-87657900D01*
X175236253Y-87662521D01*
X175245632Y-87665366D01*
X175255387Y-87666327D01*
X175260387Y-87666327D01*
X175270142Y-87665366D01*
X175279521Y-87662521D01*
X175288166Y-87657900D01*
X175295742Y-87651682D01*
X175301960Y-87644106D01*
X175306581Y-87635461D01*
X175309426Y-87626082D01*
X175310387Y-87616327D01*
X175310387Y-86566327D01*
X175309426Y-86556572D01*
X175306581Y-86547193D01*
X175301960Y-86538548D01*
X175295742Y-86530972D01*
X175288166Y-86524754D01*
X175279521Y-86520133D01*
X175270142Y-86517288D01*
X175260387Y-86516327D01*
X175255387Y-86516327D01*
X175245632Y-86517288D01*
X175236253Y-86520133D01*
X175227608Y-86524754D01*
X175220032Y-86530972D01*
X175213814Y-86538548D01*
X175209193Y-86547193D01*
X175206348Y-86556572D01*
X175205387Y-86566327D01*
X174675387Y-86566327D01*
X174675387Y-86523827D01*
X174680387Y-86523827D01*
X174690142Y-86522866D01*
X174699521Y-86520021D01*
X174708166Y-86515400D01*
X174715742Y-86509182D01*
X174721960Y-86501606D01*
X174726581Y-86492961D01*
X174729426Y-86483582D01*
X174730387Y-86473827D01*
X174730387Y-85816327D01*
X176630387Y-85816327D01*
X176630387Y-86526577D01*
X176630387Y-86526577D01*
G37*
G36*
X206800000Y-88050000D02*
X206000000Y-88050000D01*
X206000000Y-87150000D01*
X206800000Y-87150000D01*
X206800000Y-88050000D01*
X206800000Y-88050000D01*
G37*
G36*
X209650000Y-88050000D02*
X208850000Y-88050000D01*
X208850000Y-87150000D01*
X209650000Y-87150000D01*
X209650000Y-88050000D01*
X209650000Y-88050000D01*
G37*
G36*
X208300000Y-87950000D02*
X207400000Y-87950000D01*
X207400000Y-87150000D01*
X208300000Y-87150000D01*
X208300000Y-87950000D01*
X208300000Y-87950000D01*
G37*
G36*
X177700000Y-87500000D02*
X176900000Y-87500000D01*
X176900000Y-85800000D01*
X177700000Y-85800000D01*
X177700000Y-87500000D01*
X177700000Y-87500000D01*
G37*
G36*
X210700000Y-85450000D02*
X208650000Y-85450000D01*
X208640245Y-85450961D01*
X208630866Y-85453806D01*
X208622221Y-85458427D01*
X208614645Y-85464645D01*
X208608427Y-85472221D01*
X208603806Y-85480866D01*
X208600961Y-85490245D01*
X208600000Y-85500000D01*
X208600000Y-86150000D01*
X208600961Y-86159755D01*
X208603806Y-86169134D01*
X208608427Y-86177779D01*
X208614645Y-86185355D01*
X208622221Y-86191573D01*
X208630866Y-86196194D01*
X208640245Y-86199039D01*
X208650000Y-86200000D01*
X209500000Y-86200000D01*
X209500000Y-87000000D01*
X207800000Y-87000000D01*
X207800000Y-84400000D01*
X208650000Y-84400000D01*
X208659755Y-84399039D01*
X208669134Y-84396194D01*
X208677779Y-84391573D01*
X208685355Y-84385355D01*
X208691573Y-84377779D01*
X208696194Y-84369134D01*
X208699039Y-84359755D01*
X208700000Y-84350000D01*
X208700000Y-84150000D01*
X210700000Y-84150000D01*
X210700000Y-85450000D01*
X210700000Y-85450000D01*
G37*
G36*
X207381000Y-86910000D02*
X205811000Y-86910000D01*
X205811000Y-85910000D01*
X207381000Y-85910000D01*
X207381000Y-86910000D01*
X207381000Y-86910000D01*
G37*
G36*
X201285000Y-86910000D02*
X199715000Y-86910000D01*
X199715000Y-85910000D01*
X201285000Y-85910000D01*
X201285000Y-86910000D01*
X201285000Y-86910000D01*
G37*
G36*
X199350000Y-85400000D02*
X199340245Y-85400961D01*
X199330866Y-85403806D01*
X199322221Y-85408427D01*
X199314645Y-85414645D01*
X199308427Y-85422221D01*
X199303806Y-85430866D01*
X199300961Y-85440245D01*
X199300000Y-85450000D01*
X199300000Y-86300000D01*
X197600000Y-86300000D01*
X197600000Y-85500000D01*
X198400000Y-85500000D01*
X198409755Y-85499039D01*
X198419134Y-85496194D01*
X198427779Y-85491573D01*
X198435355Y-85485355D01*
X198441573Y-85477779D01*
X198446194Y-85469134D01*
X198449039Y-85459755D01*
X198450000Y-85450000D01*
X198450000Y-84200000D01*
X199350000Y-84200000D01*
X199350000Y-85400000D01*
X199350000Y-85400000D01*
G37*
G36*
X201285000Y-85640000D02*
X199715000Y-85640000D01*
X199715000Y-84640000D01*
X201285000Y-84640000D01*
X201285000Y-85640000D01*
X201285000Y-85640000D01*
G37*
G36*
X207381000Y-85640000D02*
X205811000Y-85640000D01*
X205811000Y-84640000D01*
X207381000Y-84640000D01*
X207381000Y-85640000D01*
X207381000Y-85640000D01*
G37*
G36*
X193200000Y-85600000D02*
X191500000Y-85600000D01*
X191500000Y-83900000D01*
X193200000Y-83900000D01*
X193200000Y-85600000D01*
X193200000Y-85600000D01*
G37*
G36*
X176300000Y-85450000D02*
X174300000Y-85450000D01*
X174300000Y-84150000D01*
X176300000Y-84150000D01*
X176300000Y-85450000D01*
X176300000Y-85450000D01*
G37*
G36*
X197450000Y-85400000D02*
X196550000Y-85400000D01*
X196550000Y-84200000D01*
X197450000Y-84200000D01*
X197450000Y-85400000D01*
X197450000Y-85400000D01*
G37*
G36*
X179050000Y-85350000D02*
X177550000Y-85350000D01*
X177550000Y-84050000D01*
X179050000Y-84050000D01*
X179050000Y-85350000D01*
X179050000Y-85350000D01*
G37*
G36*
X195400000Y-84600000D02*
X194600000Y-84600000D01*
X194600000Y-81100000D01*
X195400000Y-81100000D01*
X195400000Y-84600000D01*
X195400000Y-84600000D01*
G37*
G36*
X207381000Y-84370000D02*
X205811000Y-84370000D01*
X205811000Y-83370000D01*
X207381000Y-83370000D01*
X207381000Y-84370000D01*
X207381000Y-84370000D01*
G37*
G36*
X201285000Y-84370000D02*
X199715000Y-84370000D01*
X199715000Y-83370000D01*
X201285000Y-83370000D01*
X201285000Y-84370000D01*
X201285000Y-84370000D01*
G37*
G36*
X196400000Y-84100000D02*
X195600000Y-84100000D01*
X195600000Y-82400000D01*
X196400000Y-82400000D01*
X196400000Y-84100000D01*
X196400000Y-84100000D01*
G37*
G36*
X179050000Y-83850000D02*
X177550000Y-83850000D01*
X177550000Y-82550000D01*
X179050000Y-82550000D01*
X179050000Y-83850000D01*
X179050000Y-83850000D01*
G37*
G36*
X194430000Y-81899500D02*
X194430961Y-81909255D01*
X194433806Y-81918634D01*
X194438427Y-81927279D01*
X194444645Y-81934855D01*
X194452221Y-81941073D01*
X194460866Y-81945694D01*
X194470245Y-81948539D01*
X194480000Y-81949500D01*
X194485000Y-81949500D01*
X194485000Y-83034500D01*
X194480000Y-83034500D01*
X194470245Y-83035461D01*
X194460866Y-83038306D01*
X194452221Y-83042927D01*
X194444645Y-83049145D01*
X194438427Y-83056721D01*
X194433806Y-83065366D01*
X194430961Y-83074745D01*
X194430000Y-83084500D01*
X194430000Y-83742000D01*
X192530000Y-83742000D01*
X192530000Y-83031750D01*
X192535355Y-83027355D01*
X192541573Y-83019779D01*
X192546194Y-83011134D01*
X192549039Y-83001755D01*
X192550000Y-82992000D01*
X192550000Y-81942000D01*
X193850000Y-81942000D01*
X193850000Y-82992000D01*
X193850961Y-83001755D01*
X193853806Y-83011134D01*
X193858427Y-83019779D01*
X193864645Y-83027355D01*
X193872221Y-83033573D01*
X193880866Y-83038194D01*
X193890245Y-83041039D01*
X193900000Y-83042000D01*
X193905000Y-83042000D01*
X193914755Y-83041039D01*
X193924134Y-83038194D01*
X193932779Y-83033573D01*
X193940355Y-83027355D01*
X193946573Y-83019779D01*
X193951194Y-83011134D01*
X193954039Y-83001755D01*
X193955000Y-82992000D01*
X193955000Y-81942000D01*
X193954039Y-81932245D01*
X193951194Y-81922866D01*
X193946573Y-81914221D01*
X193940355Y-81906645D01*
X193932779Y-81900427D01*
X193924134Y-81895806D01*
X193914755Y-81892961D01*
X193905000Y-81892000D01*
X193900000Y-81892000D01*
X193890245Y-81892961D01*
X193880866Y-81895806D01*
X193872221Y-81900427D01*
X193864645Y-81906645D01*
X193858427Y-81914221D01*
X193853806Y-81922866D01*
X193850961Y-81932245D01*
X193850000Y-81942000D01*
X192550000Y-81942000D01*
X192549039Y-81932245D01*
X192546194Y-81922866D01*
X192541573Y-81914221D01*
X192535355Y-81906645D01*
X192530000Y-81902250D01*
X192530000Y-81192000D01*
X194430000Y-81192000D01*
X194430000Y-81899500D01*
X194430000Y-81899500D01*
G37*
G36*
X192250000Y-83250000D02*
X191550000Y-83250000D01*
X191550000Y-82550000D01*
X192250000Y-82550000D01*
X192250000Y-83250000D01*
X192250000Y-83250000D01*
G37*
G36*
X201285000Y-83100000D02*
X199715000Y-83100000D01*
X199715000Y-82100000D01*
X201285000Y-82100000D01*
X201285000Y-83100000D01*
X201285000Y-83100000D01*
G37*
G36*
X207381000Y-83100000D02*
X205811000Y-83100000D01*
X205811000Y-82100000D01*
X207381000Y-82100000D01*
X207381000Y-83100000D01*
X207381000Y-83100000D01*
G37*
G36*
X199350000Y-83100000D02*
X196550000Y-83100000D01*
X196550000Y-81900000D01*
X199350000Y-81900000D01*
X199350000Y-83100000D01*
X199350000Y-83100000D01*
G37*
G36*
X176300000Y-82050000D02*
X174300000Y-82050000D01*
X174300000Y-80750000D01*
X176300000Y-80750000D01*
X176300000Y-82050000D01*
X176300000Y-82050000D01*
G37*
G36*
X210700000Y-82050000D02*
X208700000Y-82050000D01*
X208700000Y-80750000D01*
X210700000Y-80750000D01*
X210700000Y-82050000D01*
X210700000Y-82050000D01*
G37*
G36*
X192250000Y-81850000D02*
X191550000Y-81850000D01*
X191550000Y-81150000D01*
X192250000Y-81150000D01*
X192250000Y-81850000D01*
X192250000Y-81850000D01*
G37*
G36*
X207000000Y-81700000D02*
X205300000Y-81700000D01*
X205300000Y-80900000D01*
X207000000Y-80900000D01*
X207000000Y-81700000D01*
X207000000Y-81700000D01*
G37*
M02*
